STARTFONT 2.1
FONT -FontForge-Lucida Console-Book-R-Normal--24-240-75-75-M-140-ISO10646-1
SIZE 24 75 75
FONTBOUNDINGBOX 15 25 0 -6
COMMENT "Generated by fontforge, http://fontforge.sourceforge.net"
COMMENT "Copyright (c) 1993 Bigelow & Holmes Inc. All rights reserved."
STARTPROPERTIES 40
FOUNDRY "FontForge"
FAMILY_NAME "Lucida Console"
WEIGHT_NAME "Book"
SLANT "R"
SETWIDTH_NAME "Normal"
ADD_STYLE_NAME ""
PIXEL_SIZE 24
POINT_SIZE 240
RESOLUTION_X 75
RESOLUTION_Y 75
SPACING "M"
AVERAGE_WIDTH 140
CHARSET_REGISTRY "ISO10646"
CHARSET_ENCODING "1"
FONTNAME_REGISTRY ""
CHARSET_COLLECTIONS "ASCII ISOLatin1Encoding ISO8859-2 ISO8859-5 ISO8859-7 ISO8859-9 ISO8859-4 ISO10646-1"
FONT_NAME "LucidaConsole"
FACE_NAME "Lucida Console"
COPYRIGHT "Copyright (c) 1993 Bigelow & Holmes Inc. All rights reserved."
FONT_VERSION "5.01"
FONT_ASCENT 19
FONT_DESCENT 5
UNDERLINE_POSITION -3
UNDERLINE_THICKNESS 2
X_HEIGHT 12
CAP_HEIGHT 14
RAW_ASCENT 799
RAW_DESCENT 200
NORM_SPACE 14
RELATIVE_WEIGHT 40
RELATIVE_SETWIDTH 40
SUPERSCRIPT_X 0
SUPERSCRIPT_Y 5
SUPERSCRIPT_SIZE 15
SUBSCRIPT_X 0
SUBSCRIPT_Y 1
SUBSCRIPT_SIZE 15
FIGURE_WIDTH 14
AVG_LOWERCASE_WIDTH 140
AVG_UPPERCASE_WIDTH 140
ENDPROPERTIES
CHARS 667
STARTCHAR space
ENCODING 32
SWIDTH 602 0
DWIDTH 14 0
BBX 1 1 0 0
BITMAP
00
ENDCHAR
STARTCHAR exclam
ENCODING 33
SWIDTH 602 0
DWIDTH 14 0
BBX 2 17 6 0
BITMAP
C0
C0
C0
C0
C0
C0
C0
C0
C0
C0
C0
C0
00
00
C0
C0
C0
ENDCHAR
STARTCHAR quotedbl
ENCODING 34
SWIDTH 602 0
DWIDTH 14 0
BBX 8 6 3 13
BITMAP
C3
C3
C3
C3
C3
82
ENDCHAR
STARTCHAR numbersign
ENCODING 35
SWIDTH 602 0
DWIDTH 14 0
BBX 13 17 1 0
BITMAP
0630
0630
0C60
0C60
0C60
7FF8
7FF8
18C0
18C0
18C0
FFF0
FFF0
3180
3180
3180
6300
6300
ENDCHAR
STARTCHAR dollar
ENCODING 36
SWIDTH 602 0
DWIDTH 14 0
BBX 9 19 3 -1
BITMAP
0800
3F00
7F80
E880
C800
C800
E800
7800
3800
1C00
0F00
0B00
0980
0980
0980
CB80
FF00
7E00
0800
ENDCHAR
STARTCHAR percent
ENCODING 37
SWIDTH 602 0
DWIDTH 14 0
BBX 14 17 0 0
BITMAP
380C
6C18
C630
C630
C660
C6C0
6D80
3980
0300
0670
06D8
0D8C
198C
318C
318C
60D8
C070
ENDCHAR
STARTCHAR ampersand
ENCODING 38
SWIDTH 602 0
DWIDTH 14 0
BBX 14 17 0 0
BITMAP
0780
0FC0
18C0
18C0
18C0
1D80
0F00
1E00
3E0C
670C
C30C
C388
C1D8
E0F0
7070
7FF8
1FBC
ENDCHAR
STARTCHAR quotesingle
ENCODING 39
SWIDTH 602 0
DWIDTH 14 0
BBX 2 6 6 13
BITMAP
C0
C0
C0
C0
C0
80
ENDCHAR
STARTCHAR parenleft
ENCODING 40
SWIDTH 602 0
DWIDTH 14 0
BBX 9 22 4 -3
BITMAP
0180
0780
1E00
1800
3000
6000
6000
C000
C000
C000
C000
C000
C000
C000
C000
6000
6000
3000
1800
1E00
0780
0180
ENDCHAR
STARTCHAR parenright
ENCODING 41
SWIDTH 602 0
DWIDTH 14 0
BBX 9 22 1 -3
BITMAP
C000
F000
3C00
0C00
0600
0300
0300
0380
0180
0180
0180
0180
0180
0180
0380
0300
0300
0600
0C00
3C00
F000
C000
ENDCHAR
STARTCHAR asterisk
ENCODING 42
SWIDTH 602 0
DWIDTH 14 0
BBX 11 10 2 7
BITMAP
0C00
0C00
0C00
ECE0
F1E0
0000
0A00
1B00
3180
1100
ENDCHAR
STARTCHAR plus
ENCODING 43
SWIDTH 602 0
DWIDTH 14 0
BBX 12 13 1 0
BITMAP
0600
0600
0600
0600
0600
FFF0
FFF0
0600
0600
0600
0600
0600
0600
ENDCHAR
STARTCHAR comma
ENCODING 44
SWIDTH 602 0
DWIDTH 14 0
BBX 3 7 6 -4
BITMAP
E0
E0
E0
60
60
40
C0
ENDCHAR
STARTCHAR hyphen
ENCODING 45
SWIDTH 602 0
DWIDTH 14 0
BBX 10 2 2 6
BITMAP
FFC0
FFC0
ENDCHAR
STARTCHAR period
ENCODING 46
SWIDTH 602 0
DWIDTH 14 0
BBX 3 3 6 0
BITMAP
E0
E0
E0
ENDCHAR
STARTCHAR slash
ENCODING 47
SWIDTH 602 0
DWIDTH 14 0
BBX 12 22 1 -3
BITMAP
0030
0060
0060
00C0
00C0
01C0
0180
0180
0300
0300
0600
0600
0C00
0C00
1800
1800
3800
3000
3000
6000
6000
C000
ENDCHAR
STARTCHAR zero
ENCODING 48
SWIDTH 602 0
DWIDTH 14 0
BBX 11 17 1 0
BITMAP
1F00
3F80
71C0
60C0
E0C0
C060
C060
C060
C060
C060
C060
C060
E0C0
60C0
71C0
3F80
1F00
ENDCHAR
STARTCHAR one
ENCODING 49
SWIDTH 602 0
DWIDTH 14 0
BBX 12 17 2 0
BITMAP
0600
3E00
FE00
8600
0600
0600
0600
0600
0600
0600
0600
0600
0600
0600
0600
FFF0
FFF0
ENDCHAR
STARTCHAR two
ENCODING 50
SWIDTH 602 0
DWIDTH 14 0
BBX 9 17 2 0
BITMAP
7C00
FF00
C380
0180
0180
0180
0180
0300
0600
0C00
1800
3000
3000
6000
E000
FF80
FF80
ENDCHAR
STARTCHAR three
ENCODING 51
SWIDTH 602 0
DWIDTH 14 0
BBX 9 17 3 0
BITMAP
7E00
FF00
8380
0180
0180
0180
0300
3C00
3E00
0700
0180
0180
0180
0180
8300
FF00
FC00
ENDCHAR
STARTCHAR four
ENCODING 52
SWIDTH 602 0
DWIDTH 14 0
BBX 11 17 2 0
BITMAP
0180
0380
0780
0780
0D80
1980
1980
3180
6180
C180
FFE0
FFE0
0180
0180
0180
0180
0180
ENDCHAR
STARTCHAR five
ENCODING 53
SWIDTH 602 0
DWIDTH 14 0
BBX 8 17 4 0
BITMAP
FF
FF
C0
C0
C0
C0
F8
FC
0E
07
03
03
03
07
86
FE
F8
ENDCHAR
STARTCHAR six
ENCODING 54
SWIDTH 602 0
DWIDTH 14 0
BBX 11 17 2 0
BITMAP
0F80
1FC0
3840
6000
6000
C000
CF00
DFC0
F1C0
E0E0
C060
C060
C060
6060
70C0
3F80
1F00
ENDCHAR
STARTCHAR seven
ENCODING 55
SWIDTH 602 0
DWIDTH 14 0
BBX 10 17 2 0
BITMAP
FFC0
FFC0
00C0
0180
0300
0300
0600
0600
0C00
0C00
1800
1800
3000
3000
7000
6000
6000
ENDCHAR
STARTCHAR eight
ENCODING 56
SWIDTH 602 0
DWIDTH 14 0
BBX 11 17 2 0
BITMAP
1F00
3F80
71C0
60C0
60C0
7080
3980
1F00
3F80
63C0
E0E0
C060
C060
C060
E0C0
7FC0
1F00
ENDCHAR
STARTCHAR nine
ENCODING 57
SWIDTH 602 0
DWIDTH 14 0
BBX 11 17 2 0
BITMAP
1F00
3F80
61C0
C0C0
C060
C060
C060
E0E0
71E0
7F60
1E60
0060
00C0
00C0
4380
7F00
3E00
ENDCHAR
STARTCHAR colon
ENCODING 58
SWIDTH 602 0
DWIDTH 14 0
BBX 3 13 6 0
BITMAP
E0
E0
E0
00
00
00
00
00
00
00
E0
E0
E0
ENDCHAR
STARTCHAR semicolon
ENCODING 59
SWIDTH 602 0
DWIDTH 14 0
BBX 3 17 6 -4
BITMAP
E0
E0
E0
00
00
00
00
00
00
00
E0
E0
E0
60
60
40
C0
ENDCHAR
STARTCHAR less
ENCODING 60
SWIDTH 602 0
DWIDTH 14 0
BBX 12 13 1 0
BITMAP
0010
0070
01E0
0380
0E00
3C00
F000
3C00
0E00
0380
01E0
0070
0010
ENDCHAR
STARTCHAR equal
ENCODING 61
SWIDTH 602 0
DWIDTH 14 0
BBX 12 7 1 3
BITMAP
FFF0
FFF0
0000
0000
0000
FFF0
FFF0
ENDCHAR
STARTCHAR greater
ENCODING 62
SWIDTH 602 0
DWIDTH 14 0
BBX 12 13 1 0
BITMAP
8000
E000
7800
1C00
0700
03C0
00F0
03C0
0700
1C00
7800
E000
8000
ENDCHAR
STARTCHAR question
ENCODING 63
SWIDTH 602 0
DWIDTH 14 0
BBX 10 17 2 0
BITMAP
7F00
FF80
C1C0
C0C0
00C0
0180
0180
0600
0C00
1800
1800
1800
0000
0000
1800
1800
1800
ENDCHAR
STARTCHAR at
ENCODING 64
SWIDTH 602 0
DWIDTH 14 0
BBX 13 17 1 0
BITMAP
07C0
1860
3070
6030
61F0
E630
C430
CC30
CC70
CC70
CCB0
CFB0
6738
6000
3000
1820
0FC0
ENDCHAR
STARTCHAR A
ENCODING 65
SWIDTH 602 0
DWIDTH 14 0
BBX 14 15 0 0
BITMAP
0380
0780
0780
07C0
0CC0
0CE0
1860
1860
1870
3FF0
3FF0
7018
6018
6018
C00C
ENDCHAR
STARTCHAR B
ENCODING 66
SWIDTH 602 0
DWIDTH 14 0
BBX 10 15 2 0
BITMAP
FE00
FF00
C380
C180
C180
C300
FE00
FE00
C380
C1C0
C0C0
C0C0
C1C0
FF80
FF00
ENDCHAR
STARTCHAR C
ENCODING 67
SWIDTH 602 0
DWIDTH 14 0
BBX 12 15 1 0
BITMAP
07E0
1FF0
3830
7000
6000
C000
C000
C000
C000
C000
E000
7000
3810
1FF0
07E0
ENDCHAR
STARTCHAR D
ENCODING 68
SWIDTH 602 0
DWIDTH 14 0
BBX 12 15 2 0
BITMAP
FF00
FFC0
C1E0
C060
C070
C030
C030
C030
C030
C030
C070
C060
C1C0
FF80
FF00
ENDCHAR
STARTCHAR E
ENCODING 69
SWIDTH 602 0
DWIDTH 14 0
BBX 11 15 2 0
BITMAP
FFC0
FFC0
C000
C000
C000
C000
FF80
FF80
C000
C000
C000
C000
C000
FFE0
FFE0
ENDCHAR
STARTCHAR F
ENCODING 70
SWIDTH 602 0
DWIDTH 14 0
BBX 11 15 3 0
BITMAP
FFE0
FFE0
C000
C000
C000
C000
C000
FFC0
FFC0
C000
C000
C000
C000
C000
C000
ENDCHAR
STARTCHAR G
ENCODING 71
SWIDTH 602 0
DWIDTH 14 0
BBX 12 15 1 0
BITMAP
07E0
1FF0
3830
7000
6000
C000
C000
C1F0
C1F0
C030
E030
7030
3C30
1FF0
07E0
ENDCHAR
STARTCHAR H
ENCODING 72
SWIDTH 602 0
DWIDTH 14 0
BBX 11 15 2 0
BITMAP
C060
C060
C060
C060
C060
C060
FFE0
FFE0
C060
C060
C060
C060
C060
C060
C060
ENDCHAR
STARTCHAR I
ENCODING 73
SWIDTH 602 0
DWIDTH 14 0
BBX 10 15 2 0
BITMAP
FFC0
FFC0
0C00
0C00
0C00
0C00
0C00
0C00
0C00
0C00
0C00
0C00
0C00
FFC0
FFC0
ENDCHAR
STARTCHAR J
ENCODING 74
SWIDTH 602 0
DWIDTH 14 0
BBX 8 15 3 0
BITMAP
7F
7F
03
03
03
03
03
03
03
03
03
03
06
FE
FC
ENDCHAR
STARTCHAR K
ENCODING 75
SWIDTH 602 0
DWIDTH 14 0
BBX 12 15 2 0
BITMAP
C0E0
C1C0
C380
C700
CE00
CC00
D800
F800
DC00
CE00
C700
C380
C1C0
C0E0
C070
ENDCHAR
STARTCHAR L
ENCODING 76
SWIDTH 602 0
DWIDTH 14 0
BBX 10 15 2 0
BITMAP
C000
C000
C000
C000
C000
C000
C000
C000
C000
C000
C000
C000
C000
FFC0
FFC0
ENDCHAR
STARTCHAR M
ENCODING 77
SWIDTH 602 0
DWIDTH 14 0
BBX 12 15 1 0
BITMAP
E070
F070
F0F0
F0F0
D8B0
D9B0
D9B0
C930
CF30
CF30
C630
C630
C030
C030
C030
ENDCHAR
STARTCHAR N
ENCODING 78
SWIDTH 602 0
DWIDTH 14 0
BBX 11 15 2 0
BITMAP
E060
E060
F060
F060
D860
DC60
CC60
CE60
C660
C360
C360
C1E0
C1E0
C0E0
C0E0
ENDCHAR
STARTCHAR O
ENCODING 79
SWIDTH 602 0
DWIDTH 14 0
BBX 13 15 1 0
BITMAP
0F80
3FE0
7070
6030
E038
C018
C018
C018
C018
C018
E038
6030
7070
3FE0
0F80
ENDCHAR
STARTCHAR P
ENCODING 80
SWIDTH 602 0
DWIDTH 14 0
BBX 10 15 3 0
BITMAP
FF00
FF80
C1C0
C0C0
C0C0
C0C0
C380
FF80
FE00
C000
C000
C000
C000
C000
C000
ENDCHAR
STARTCHAR Q
ENCODING 81
SWIDTH 602 0
DWIDTH 14 0
BBX 13 18 1 -3
BITMAP
0F80
3FE0
7070
6030
E038
C018
C018
C018
C018
C018
E038
6030
7070
3FE0
0FC0
01E0
0078
0010
ENDCHAR
STARTCHAR R
ENCODING 82
SWIDTH 602 0
DWIDTH 14 0
BBX 11 15 2 0
BITMAP
FF00
FF80
C1C0
C0C0
C0C0
C0C0
C380
FF00
FC00
C600
C700
C380
C1C0
C0C0
C060
ENDCHAR
STARTCHAR S
ENCODING 83
SWIDTH 602 0
DWIDTH 14 0
BBX 11 15 2 0
BITMAP
3F80
7FC0
E0C0
C000
C000
F000
7C00
1F80
03C0
00E0
0060
0060
C0E0
FFC0
3F00
ENDCHAR
STARTCHAR T
ENCODING 84
SWIDTH 602 0
DWIDTH 14 0
BBX 14 15 0 0
BITMAP
FFFC
FFFC
0300
0300
0300
0300
0300
0300
0300
0300
0300
0300
0300
0300
0300
ENDCHAR
STARTCHAR U
ENCODING 85
SWIDTH 602 0
DWIDTH 14 0
BBX 11 15 2 0
BITMAP
C060
C060
C060
C060
C060
C060
C060
C060
C060
C060
C060
E0E0
60C0
7FC0
1F00
ENDCHAR
STARTCHAR V
ENCODING 86
SWIDTH 602 0
DWIDTH 14 0
BBX 14 15 0 0
BITMAP
C00C
6018
6018
7038
3030
3030
1860
1860
1C60
0CC0
0EC0
0780
0780
0780
0300
ENDCHAR
STARTCHAR W
ENCODING 87
SWIDTH 602 0
DWIDTH 14 0
BBX 14 15 0 0
BITMAP
C00C
C00C
C00C
4308
6388
6398
6798
6798
6498
64D0
34D0
34D0
38F0
3870
3870
ENDCHAR
STARTCHAR X
ENCODING 88
SWIDTH 602 0
DWIDTH 14 0
BBX 14 15 0 0
BITMAP
701C
3838
1830
1C60
0EC0
07C0
0380
0380
0780
0CC0
1CE0
1870
3030
6018
E01C
ENDCHAR
STARTCHAR Y
ENCODING 89
SWIDTH 602 0
DWIDTH 14 0
BBX 14 15 0 0
BITMAP
E01C
7018
3030
3870
1C60
0CC0
0FC0
0780
0300
0300
0300
0300
0300
0300
0300
ENDCHAR
STARTCHAR Z
ENCODING 90
SWIDTH 602 0
DWIDTH 14 0
BBX 12 15 1 0
BITMAP
7FF0
7FF0
0070
00E0
01C0
0380
0300
0600
0C00
1C00
3800
7000
E000
FFF0
FFF0
ENDCHAR
STARTCHAR bracketleft
ENCODING 91
SWIDTH 602 0
DWIDTH 14 0
BBX 7 22 5 -3
BITMAP
FE
FE
C0
C0
C0
C0
C0
C0
C0
C0
C0
C0
C0
C0
C0
C0
C0
C0
C0
C0
FE
FE
ENDCHAR
STARTCHAR backslash
ENCODING 92
SWIDTH 602 0
DWIDTH 14 0
BBX 12 22 1 -3
BITMAP
C000
6000
6000
3000
3000
3800
1800
1800
0C00
0C00
0600
0600
0300
0300
0180
0180
01C0
00C0
00C0
0060
0060
0030
ENDCHAR
STARTCHAR bracketright
ENCODING 93
SWIDTH 602 0
DWIDTH 14 0
BBX 7 22 2 -3
BITMAP
FE
FE
06
06
06
06
06
06
06
06
06
06
06
06
06
06
06
06
06
06
FE
FE
ENDCHAR
STARTCHAR asciicircum
ENCODING 94
SWIDTH 602 0
DWIDTH 14 0
BBX 12 14 1 3
BITMAP
0200
0200
0600
0700
0D00
0D80
1D80
1880
18C0
30C0
3060
6060
6060
C030
ENDCHAR
STARTCHAR underscore
ENCODING 95
SWIDTH 602 0
DWIDTH 14 0
BBX 14 2 0 -2
BITMAP
FFFC
FFFC
ENDCHAR
STARTCHAR grave
ENCODING 96
SWIDTH 602 0
DWIDTH 14 0
BBX 4 3 5 16
BITMAP
C0
60
30
ENDCHAR
STARTCHAR a
ENCODING 97
SWIDTH 602 0
DWIDTH 14 0
BBX 12 13 1 0
BITMAP
3F00
7F80
61C0
00C0
00C0
1FC0
7FC0
60C0
C0C0
C0C0
E1C0
7FF0
3C70
ENDCHAR
STARTCHAR b
ENCODING 98
SWIDTH 602 0
DWIDTH 14 0
BBX 11 19 2 0
BITMAP
C000
C000
C000
C000
C000
C000
CF00
DFC0
F0C0
E0E0
C060
C060
C060
C060
C060
C0C0
F1C0
FF80
DF00
ENDCHAR
STARTCHAR c
ENCODING 99
SWIDTH 602 0
DWIDTH 14 0
BBX 11 13 2 0
BITMAP
0FC0
3FE0
7020
6000
C000
C000
C000
C000
C000
6000
7020
3FE0
0FC0
ENDCHAR
STARTCHAR d
ENCODING 100
SWIDTH 602 0
DWIDTH 14 0
BBX 11 19 1 0
BITMAP
0060
0060
0060
0060
0060
0060
1F60
3FE0
71E0
6060
C060
C060
C060
C060
C060
C0E0
61E0
7F60
1E60
ENDCHAR
STARTCHAR e
ENCODING 101
SWIDTH 602 0
DWIDTH 14 0
BBX 11 13 1 0
BITMAP
1F00
3FC0
70C0
6060
C060
FFE0
FFE0
C000
C000
E000
7020
3FE0
0FC0
ENDCHAR
STARTCHAR f
ENCODING 102
SWIDTH 602 0
DWIDTH 14 0
BBX 11 19 2 0
BITMAP
07E0
0FE0
1C00
1800
1800
1800
FFE0
FFE0
1800
1800
1800
1800
1800
1800
1800
1800
1800
1800
1800
ENDCHAR
STARTCHAR g
ENCODING 103
SWIDTH 602 0
DWIDTH 14 0
BBX 11 18 1 -5
BITMAP
1E60
3FE0
71E0
6060
C060
C060
C060
C060
C060
E0E0
61E0
7F60
1E60
0060
0060
40C0
7F80
3F00
ENDCHAR
STARTCHAR h
ENCODING 104
SWIDTH 602 0
DWIDTH 14 0
BBX 10 19 2 0
BITMAP
C000
C000
C000
C000
C000
C000
CF00
DF80
F1C0
E0C0
C0C0
C0C0
C0C0
C0C0
C0C0
C0C0
C0C0
C0C0
C0C0
ENDCHAR
STARTCHAR i
ENCODING 105
SWIDTH 602 0
DWIDTH 14 0
BBX 7 19 2 0
BITMAP
0E
0E
0E
00
00
00
FE
FE
06
06
06
06
06
06
06
06
06
06
06
ENDCHAR
STARTCHAR j
ENCODING 106
SWIDTH 602 0
DWIDTH 14 0
BBX 8 24 2 -5
BITMAP
07
07
07
00
00
00
7F
7F
03
03
03
03
03
03
03
03
03
03
03
03
03
87
FE
7C
ENDCHAR
STARTCHAR k
ENCODING 107
SWIDTH 602 0
DWIDTH 14 0
BBX 11 19 2 0
BITMAP
C000
C000
C000
C000
C000
C000
C1C0
C380
C700
CE00
DC00
D800
F800
DC00
CE00
C700
C380
C1C0
C0E0
ENDCHAR
STARTCHAR l
ENCODING 108
SWIDTH 602 0
DWIDTH 14 0
BBX 7 19 2 0
BITMAP
FE
FE
06
06
06
06
06
06
06
06
06
06
06
06
06
06
06
06
06
ENDCHAR
STARTCHAR m
ENCODING 109
SWIDTH 602 0
DWIDTH 14 0
BBX 12 13 1 0
BITMAP
CCE0
DEF0
E730
E730
C630
C630
C630
C630
C630
C630
C630
C630
C630
ENDCHAR
STARTCHAR n
ENCODING 110
SWIDTH 602 0
DWIDTH 14 0
BBX 10 13 2 0
BITMAP
CF00
DF80
F1C0
E0C0
C0C0
C0C0
C0C0
C0C0
C0C0
C0C0
C0C0
C0C0
C0C0
ENDCHAR
STARTCHAR o
ENCODING 111
SWIDTH 602 0
DWIDTH 14 0
BBX 12 13 1 0
BITMAP
1F80
3FC0
70E0
E060
C030
C030
C030
C030
C030
E070
70E0
3FC0
1F80
ENDCHAR
STARTCHAR p
ENCODING 112
SWIDTH 602 0
DWIDTH 14 0
BBX 11 18 2 -5
BITMAP
CF00
DFC0
F0C0
E0E0
C060
C060
C060
C060
C060
C0C0
F1C0
FF80
DF00
C000
C000
C000
C000
C000
ENDCHAR
STARTCHAR q
ENCODING 113
SWIDTH 602 0
DWIDTH 14 0
BBX 11 18 1 -5
BITMAP
1F60
3FE0
71E0
6060
C060
C060
C060
C060
C060
C0E0
61E0
7F60
1E60
0060
0060
0060
0060
0060
ENDCHAR
STARTCHAR r
ENCODING 114
SWIDTH 602 0
DWIDTH 14 0
BBX 9 13 3 0
BITMAP
CF80
DF80
F180
E180
C000
C000
C000
C000
C000
C000
C000
C000
C000
ENDCHAR
STARTCHAR s
ENCODING 115
SWIDTH 602 0
DWIDTH 14 0
BBX 10 13 2 0
BITMAP
3F00
7F80
E080
C000
E000
7C00
3F00
07C0
00C0
00C0
C1C0
FF80
7E00
ENDCHAR
STARTCHAR t
ENCODING 116
SWIDTH 602 0
DWIDTH 14 0
BBX 11 15 1 0
BITMAP
1800
1800
FFE0
FFE0
1800
1800
1800
1800
1800
1800
1800
1800
1C00
0FE0
07E0
ENDCHAR
STARTCHAR u
ENCODING 117
SWIDTH 602 0
DWIDTH 14 0
BBX 10 13 2 0
BITMAP
C0C0
C0C0
C0C0
C0C0
C0C0
C0C0
C0C0
C0C0
C0C0
C1C0
E3C0
7EC0
3CC0
ENDCHAR
STARTCHAR v
ENCODING 118
SWIDTH 602 0
DWIDTH 14 0
BBX 12 13 1 0
BITMAP
C030
6060
6060
7060
30C0
30C0
18C0
1980
1980
0F00
0F00
0F00
0600
ENDCHAR
STARTCHAR w
ENCODING 119
SWIDTH 602 0
DWIDTH 14 0
BBX 14 13 0 0
BITMAP
C00C
C30C
E38C
6788
6798
6498
6498
6CD8
7CD0
38D0
3870
3870
3870
ENDCHAR
STARTCHAR x
ENCODING 120
SWIDTH 602 0
DWIDTH 14 0
BBX 12 13 1 0
BITMAP
E060
70C0
30C0
1980
1F00
0F00
0E00
0F00
1B80
3980
30C0
60E0
E070
ENDCHAR
STARTCHAR y
ENCODING 121
SWIDTH 602 0
DWIDTH 14 0
BBX 12 18 1 -5
BITMAP
C030
6060
6060
7060
30C0
30C0
1980
1980
1D80
0F00
0F00
0600
0600
0600
0C00
1C00
7800
7000
ENDCHAR
STARTCHAR z
ENCODING 122
SWIDTH 602 0
DWIDTH 14 0
BBX 11 13 2 0
BITMAP
FFE0
FFE0
00E0
01C0
0380
0700
0E00
1C00
3800
7000
E000
FFE0
FFE0
ENDCHAR
STARTCHAR braceleft
ENCODING 123
SWIDTH 602 0
DWIDTH 14 0
BBX 9 22 3 -3
BITMAP
0780
0F80
1C00
1800
1800
1800
0C00
0C00
0C00
1C00
F800
F800
1C00
0C00
0C00
0C00
1800
1800
1800
1C00
0F80
0780
ENDCHAR
STARTCHAR bar
ENCODING 124
SWIDTH 602 0
DWIDTH 14 0
BBX 2 22 6 -3
BITMAP
C0
C0
C0
C0
C0
C0
C0
C0
C0
C0
C0
C0
C0
C0
C0
C0
C0
C0
C0
C0
C0
C0
ENDCHAR
STARTCHAR braceright
ENCODING 125
SWIDTH 602 0
DWIDTH 14 0
BBX 9 22 3 -3
BITMAP
F000
F800
1C00
0C00
0C00
0C00
1800
1800
1800
1C00
0F80
0F80
1C00
1800
1800
1800
0C00
0C00
0C00
1C00
F800
F000
ENDCHAR
STARTCHAR asciitilde
ENCODING 126
SWIDTH 602 0
DWIDTH 14 0
BBX 12 4 1 4
BITMAP
7830
7E30
C7E0
C1C0
ENDCHAR
STARTCHAR uni00A0
ENCODING 160
SWIDTH 602 0
DWIDTH 14 0
BBX 1 1 0 0
BITMAP
00
ENDCHAR
STARTCHAR exclamdown
ENCODING 161
SWIDTH 602 0
DWIDTH 14 0
BBX 2 18 6 -5
BITMAP
C0
C0
C0
00
00
C0
C0
C0
C0
C0
C0
C0
C0
C0
C0
C0
C0
C0
ENDCHAR
STARTCHAR cent
ENCODING 162
SWIDTH 602 0
DWIDTH 14 0
BBX 10 17 2 0
BITMAP
0400
0400
1F80
3FC0
7440
E400
C400
C400
C400
C400
C400
E400
7440
3FC0
1F80
0400
0400
ENDCHAR
STARTCHAR sterling
ENCODING 163
SWIDTH 602 0
DWIDTH 14 0
BBX 9 17 3 0
BITMAP
0F80
1F80
3800
3000
3000
3000
3000
FC00
FC00
3000
3000
3000
3000
2000
6000
FF80
FF80
ENDCHAR
STARTCHAR currency
ENCODING 164
SWIDTH 602 0
DWIDTH 14 0
BBX 11 11 2 3
BITMAP
8020
CF60
7FC0
71C0
60C0
60C0
60C0
71C0
7FC0
DE60
8020
ENDCHAR
STARTCHAR yen
ENCODING 165
SWIDTH 602 0
DWIDTH 14 0
BBX 13 17 1 0
BITMAP
E018
6030
3060
3840
18C0
1D80
0F00
0600
3FC0
3FC0
0600
0600
3FC0
3FC0
0600
0600
0600
ENDCHAR
STARTCHAR brokenbar
ENCODING 166
SWIDTH 602 0
DWIDTH 14 0
BBX 2 22 6 -3
BITMAP
C0
C0
C0
C0
C0
C0
C0
C0
C0
00
00
00
00
00
C0
C0
C0
C0
C0
C0
C0
C0
ENDCHAR
STARTCHAR section
ENCODING 167
SWIDTH 602 0
DWIDTH 14 0
BBX 9 20 3 -3
BITMAP
3F00
7F00
E100
C000
C000
7000
3C00
6F00
C380
C180
E180
7180
3F00
1F00
0700
0180
0180
C380
FF00
7E00
ENDCHAR
STARTCHAR dieresis
ENCODING 168
SWIDTH 602 0
DWIDTH 14 0
BBX 8 2 3 17
BITMAP
C3
C3
ENDCHAR
STARTCHAR copyright
ENCODING 169
SWIDTH 602 0
DWIDTH 14 0
BBX 13 17 1 0
BITMAP
0F80
3FE0
7070
6030
E7F8
CFD8
DC18
D818
D818
D818
DC18
CFD8
E7B0
6030
7070
3FE0
0F80
ENDCHAR
STARTCHAR ordfeminine
ENCODING 170
SWIDTH 602 0
DWIDTH 14 0
BBX 9 9 3 8
BITMAP
FE00
8700
0300
0300
3F00
E300
C300
C700
7980
ENDCHAR
STARTCHAR guillemotleft
ENCODING 171
SWIDTH 602 0
DWIDTH 14 0
BBX 11 11 1 1
BITMAP
0840
0C60
18C0
3180
6300
C600
6300
3180
18C0
0C60
0420
ENDCHAR
STARTCHAR logicalnot
ENCODING 172
SWIDTH 602 0
DWIDTH 14 0
BBX 13 6 0 4
BITMAP
FFF8
FFF8
0018
0018
0018
0018
ENDCHAR
STARTCHAR uni00AD
ENCODING 173
SWIDTH 602 0
DWIDTH 14 0
BBX 10 2 2 6
BITMAP
FFC0
FFC0
ENDCHAR
STARTCHAR registered
ENCODING 174
SWIDTH 602 0
DWIDTH 14 0
BBX 10 10 2 7
BITMAP
1E00
6180
5C80
9240
9240
9C40
9440
5280
6180
1E00
ENDCHAR
STARTCHAR macron
ENCODING 175
SWIDTH 602 0
DWIDTH 14 0
BBX 14 2 0 17
BITMAP
FFFC
FFFC
ENDCHAR
STARTCHAR degree
ENCODING 176
SWIDTH 602 0
DWIDTH 14 0
BBX 5 5 4 12
BITMAP
70
88
88
88
70
ENDCHAR
STARTCHAR plusminus
ENCODING 177
SWIDTH 602 0
DWIDTH 14 0
BBX 12 13 1 0
BITMAP
0600
0600
0600
0600
FFF0
FFF0
0600
0600
0600
0600
0000
FFF0
FFF0
ENDCHAR
STARTCHAR uni00B2
ENCODING 178
SWIDTH 602 0
DWIDTH 14 0
BBX 7 8 4 9
BITMAP
FC
86
06
0E
1C
70
C0
FE
ENDCHAR
STARTCHAR uni00B3
ENCODING 179
SWIDTH 602 0
DWIDTH 14 0
BBX 7 8 4 9
BITMAP
FC
86
06
7C
0C
06
86
FC
ENDCHAR
STARTCHAR acute
ENCODING 180
SWIDTH 602 0
DWIDTH 14 0
BBX 4 3 4 16
BITMAP
30
60
C0
ENDCHAR
STARTCHAR mu
ENCODING 181
SWIDTH 602 0
DWIDTH 14 0
BBX 11 18 2 -5
BITMAP
C0C0
C0C0
C0C0
C0C0
C0C0
C0C0
C0C0
C0C0
C0C0
C1C0
F3C0
FEC0
DEE0
C000
C000
C000
C000
C000
ENDCHAR
STARTCHAR paragraph
ENCODING 182
SWIDTH 602 0
DWIDTH 14 0
BBX 9 20 2 -3
BITMAP
7F80
F880
F880
F880
F880
F880
7880
1880
0880
0880
0880
0880
0880
0880
0880
0880
0880
0880
0880
0880
ENDCHAR
STARTCHAR periodcentered
ENCODING 183
SWIDTH 602 0
DWIDTH 14 0
BBX 3 3 6 5
BITMAP
E0
E0
E0
ENDCHAR
STARTCHAR cedilla
ENCODING 184
SWIDTH 602 0
DWIDTH 14 0
BBX 4 5 5 -5
BITMAP
40
E0
30
30
E0
ENDCHAR
STARTCHAR uni00B9
ENCODING 185
SWIDTH 602 0
DWIDTH 14 0
BBX 4 8 4 9
BITMAP
F0
30
30
30
30
30
30
30
ENDCHAR
STARTCHAR ordmasculine
ENCODING 186
SWIDTH 602 0
DWIDTH 14 0
BBX 9 9 3 8
BITMAP
3E00
6300
C180
C180
C180
C180
C180
6300
3E00
ENDCHAR
STARTCHAR guillemotright
ENCODING 187
SWIDTH 602 0
DWIDTH 14 0
BBX 11 11 2 1
BITMAP
8400
C600
6300
3180
18C0
0C60
18C0
3180
6300
C600
C600
ENDCHAR
STARTCHAR onequarter
ENCODING 188
SWIDTH 602 0
DWIDTH 14 0
BBX 13 17 0 0
BITMAP
F060
30C0
30C0
3180
3180
3300
3300
3600
0E30
0C70
18B0
19B0
3130
3230
63F8
6030
C030
ENDCHAR
STARTCHAR onehalf
ENCODING 189
SWIDTH 602 0
DWIDTH 14 0
BBX 14 17 0 0
BITMAP
F060
30C0
30C0
3180
3180
3300
3300
3600
0EF8
0C0C
180C
180C
3018
3030
6060
60C0
C0FC
ENDCHAR
STARTCHAR threequarters
ENCODING 190
SWIDTH 602 0
DWIDTH 14 0
BBX 13 17 1 0
BITMAP
F818
0C30
0C60
7860
78C0
0D80
0D80
FB00
0730
0670
0CB0
0DB0
1930
3230
33F8
6030
C030
ENDCHAR
STARTCHAR questiondown
ENCODING 191
SWIDTH 602 0
DWIDTH 14 0
BBX 10 18 3 -5
BITMAP
0600
0600
0600
0000
0000
0600
0600
0600
0C00
1800
3000
6000
C000
C000
C0C0
E0C0
7FC0
3F80
ENDCHAR
STARTCHAR Agrave
ENCODING 192
SWIDTH 602 0
DWIDTH 14 0
BBX 14 19 0 0
BITMAP
1C00
0E00
0200
0000
0380
0780
0780
07C0
0CC0
0CE0
1860
1860
1870
3FF0
3FF0
7018
6018
6018
C00C
ENDCHAR
STARTCHAR Aacute
ENCODING 193
SWIDTH 602 0
DWIDTH 14 0
BBX 14 19 0 0
BITMAP
0180
0300
0600
0000
0380
0780
0780
07C0
0CC0
0CE0
1860
1860
1870
3FF0
3FF0
7018
6018
6018
C00C
ENDCHAR
STARTCHAR Acircumflex
ENCODING 194
SWIDTH 602 0
DWIDTH 14 0
BBX 14 19 0 0
BITMAP
0780
0FC0
1860
0000
0380
0780
0780
07C0
0CC0
0CE0
1860
1860
1870
3FF0
3FF0
7018
6018
6018
C00C
ENDCHAR
STARTCHAR Atilde
ENCODING 195
SWIDTH 602 0
DWIDTH 14 0
BBX 14 19 0 0
BITMAP
0E20
1FE0
11C0
0000
0380
0780
0780
07C0
0CC0
0CE0
1860
1860
1870
3FF0
3FF0
7018
6018
6018
C00C
ENDCHAR
STARTCHAR Adieresis
ENCODING 196
SWIDTH 602 0
DWIDTH 14 0
BBX 14 19 0 0
BITMAP
1860
1860
0000
0000
0380
0780
0780
07C0
0CC0
0CE0
1860
1860
1870
3FF0
3FF0
7018
6018
6018
C00C
ENDCHAR
STARTCHAR Aring
ENCODING 197
SWIDTH 602 0
DWIDTH 14 0
BBX 14 19 0 0
BITMAP
0300
0480
0480
0780
0300
0780
0780
0580
0CC0
0CC0
18E0
1860
1860
3FF0
3FF0
6038
6018
6018
C00C
ENDCHAR
STARTCHAR AE
ENCODING 198
SWIDTH 602 0
DWIDTH 14 0
BBX 14 15 0 0
BITMAP
03F8
03F8
0780
0780
0D80
0D80
0980
19F8
19F8
3180
3F80
7F80
6180
61FC
C1FC
ENDCHAR
STARTCHAR Ccedilla
ENCODING 199
SWIDTH 602 0
DWIDTH 14 0
BBX 12 20 1 -5
BITMAP
07E0
1FF0
3830
7000
6000
C000
C000
C000
C000
C000
E000
7000
3810
1FF0
07E0
0200
0700
0180
0180
0700
ENDCHAR
STARTCHAR Egrave
ENCODING 200
SWIDTH 602 0
DWIDTH 14 0
BBX 11 19 2 0
BITMAP
3800
1C00
0C00
0000
FFC0
FFC0
C000
C000
C000
C000
FF80
FF80
C000
C000
C000
C000
C000
FFE0
FFE0
ENDCHAR
STARTCHAR Eacute
ENCODING 201
SWIDTH 602 0
DWIDTH 14 0
BBX 11 19 2 0
BITMAP
0300
0600
0C00
0000
FFC0
FFC0
C000
C000
C000
C000
FF80
FF80
C000
C000
C000
C000
C000
FFE0
FFE0
ENDCHAR
STARTCHAR Ecircumflex
ENCODING 202
SWIDTH 602 0
DWIDTH 14 0
BBX 11 19 2 0
BITMAP
0F00
1B00
3180
0000
FFC0
FFC0
C000
C000
C000
C000
FF80
FF80
C000
C000
C000
C000
C000
FFE0
FFE0
ENDCHAR
STARTCHAR Edieresis
ENCODING 203
SWIDTH 602 0
DWIDTH 14 0
BBX 11 19 2 0
BITMAP
30C0
30C0
0000
0000
FFC0
FFC0
C000
C000
C000
C000
FF80
FF80
C000
C000
C000
C000
C000
FFE0
FFE0
ENDCHAR
STARTCHAR Igrave
ENCODING 204
SWIDTH 602 0
DWIDTH 14 0
BBX 10 19 2 0
BITMAP
3000
1800
0C00
0000
FFC0
FFC0
0C00
0C00
0C00
0C00
0C00
0C00
0C00
0C00
0C00
0C00
0C00
FFC0
FFC0
ENDCHAR
STARTCHAR Iacute
ENCODING 205
SWIDTH 602 0
DWIDTH 14 0
BBX 10 19 2 0
BITMAP
0600
0C00
1800
0000
FFC0
FFC0
0C00
0C00
0C00
0C00
0C00
0C00
0C00
0C00
0C00
0C00
0C00
FFC0
FFC0
ENDCHAR
STARTCHAR Icircumflex
ENCODING 206
SWIDTH 602 0
DWIDTH 14 0
BBX 10 19 2 0
BITMAP
1E00
3F00
6180
0000
FFC0
FFC0
0C00
0C00
0C00
0C00
0C00
0C00
0C00
0C00
0C00
0C00
0C00
FFC0
FFC0
ENDCHAR
STARTCHAR Idieresis
ENCODING 207
SWIDTH 602 0
DWIDTH 14 0
BBX 10 19 2 0
BITMAP
6180
6180
0000
0000
FFC0
FFC0
0C00
0C00
0C00
0C00
0C00
0C00
0C00
0C00
0C00
0C00
0C00
FFC0
FFC0
ENDCHAR
STARTCHAR Eth
ENCODING 208
SWIDTH 602 0
DWIDTH 14 0
BBX 14 15 0 0
BITMAP
3FC0
3FF0
3078
3018
301C
300C
FE0C
FE0C
300C
300C
301C
3018
3070
3FE0
3FC0
ENDCHAR
STARTCHAR Ntilde
ENCODING 209
SWIDTH 602 0
DWIDTH 14 0
BBX 11 19 2 0
BITMAP
3880
7F80
4700
0000
E060
E060
F060
F060
D860
DC60
CC60
CE60
C660
C360
C360
C1E0
C1E0
C0E0
C0E0
ENDCHAR
STARTCHAR Ograve
ENCODING 210
SWIDTH 602 0
DWIDTH 14 0
BBX 13 19 1 0
BITMAP
1800
0C00
0600
0000
0F80
3FE0
7070
6030
E038
C018
C018
C018
C018
C018
E038
6030
7070
3FE0
0F80
ENDCHAR
STARTCHAR Oacute
ENCODING 211
SWIDTH 602 0
DWIDTH 14 0
BBX 13 19 1 0
BITMAP
0300
0600
0C00
0000
0F80
3FE0
7070
6030
E038
C018
C018
C018
C018
C018
E038
6030
7070
3FE0
0F80
ENDCHAR
STARTCHAR Ocircumflex
ENCODING 212
SWIDTH 602 0
DWIDTH 14 0
BBX 13 19 1 0
BITMAP
0F00
1F80
30C0
0000
0F80
3FE0
7070
6030
E038
C018
C018
C018
C018
C018
E038
6030
7070
3FE0
0F80
ENDCHAR
STARTCHAR Otilde
ENCODING 213
SWIDTH 602 0
DWIDTH 14 0
BBX 13 19 1 0
BITMAP
1C40
3FC0
2380
0000
0F80
3FE0
7070
6030
E038
C018
C018
C018
C018
C018
E038
6030
7070
3FE0
0F80
ENDCHAR
STARTCHAR Odieresis
ENCODING 214
SWIDTH 602 0
DWIDTH 14 0
BBX 13 19 1 0
BITMAP
30C0
30C0
0000
0000
0F80
3FE0
7070
6030
E038
C018
C018
C018
C018
C018
E038
6030
7070
3FE0
0F80
ENDCHAR
STARTCHAR multiply
ENCODING 215
SWIDTH 602 0
DWIDTH 14 0
BBX 13 13 1 0
BITMAP
4010
E038
7070
38E0
1DC0
0F80
0700
0F80
1DC0
38E0
7070
E038
4010
ENDCHAR
STARTCHAR Oslash
ENCODING 216
SWIDTH 602 0
DWIDTH 14 0
BBX 13 15 1 0
BITMAP
0F98
3FF0
7070
6070
E0F8
C198
C318
C618
C618
CC18
F838
7030
7070
7FE0
CF80
ENDCHAR
STARTCHAR Ugrave
ENCODING 217
SWIDTH 602 0
DWIDTH 14 0
BBX 11 19 2 0
BITMAP
3000
1800
0C00
0000
C060
C060
C060
C060
C060
C060
C060
C060
C060
C060
C060
E0E0
60C0
7FC0
1F00
ENDCHAR
STARTCHAR Uacute
ENCODING 218
SWIDTH 602 0
DWIDTH 14 0
BBX 11 19 2 0
BITMAP
0700
0C00
0800
0000
C060
C060
C060
C060
C060
C060
C060
C060
C060
C060
C060
E0E0
60C0
7FC0
1F00
ENDCHAR
STARTCHAR Ucircumflex
ENCODING 219
SWIDTH 602 0
DWIDTH 14 0
BBX 11 19 2 0
BITMAP
1E00
3F00
3180
0000
C060
C060
C060
C060
C060
C060
C060
C060
C060
C060
C060
E0E0
60C0
7FC0
1F00
ENDCHAR
STARTCHAR Udieresis
ENCODING 220
SWIDTH 602 0
DWIDTH 14 0
BBX 11 19 2 0
BITMAP
6180
6180
0000
0000
C060
C060
C060
C060
C060
C060
C060
C060
C060
C060
C060
E0E0
60C0
7FC0
1F00
ENDCHAR
STARTCHAR Yacute
ENCODING 221
SWIDTH 602 0
DWIDTH 14 0
BBX 14 19 0 0
BITMAP
01C0
0380
0200
0000
E01C
7018
3030
3870
1C60
0CC0
0FC0
0780
0300
0300
0300
0300
0300
0300
0300
ENDCHAR
STARTCHAR Thorn
ENCODING 222
SWIDTH 602 0
DWIDTH 14 0
BBX 10 15 3 0
BITMAP
C000
C000
C000
FF00
FF80
C1C0
C0C0
C0C0
C0C0
C380
FF80
FE00
C000
C000
C000
ENDCHAR
STARTCHAR germandbls
ENCODING 223
SWIDTH 602 0
DWIDTH 14 0
BBX 11 19 2 0
BITMAP
3C00
7F00
E300
C300
C300
C600
C600
CC00
CC00
CE00
C700
C380
C1C0
C0E0
C060
C060
C860
CFC0
C780
ENDCHAR
STARTCHAR agrave
ENCODING 224
SWIDTH 602 0
DWIDTH 14 0
BBX 12 19 1 0
BITMAP
1800
0C00
0600
0300
0000
0000
3F00
7F80
61C0
00C0
00C0
1FC0
7FC0
60C0
C0C0
C0C0
E1C0
7FF0
3C70
ENDCHAR
STARTCHAR aacute
ENCODING 225
SWIDTH 602 0
DWIDTH 14 0
BBX 12 19 1 0
BITMAP
01C0
0380
0700
0600
0000
0000
3F00
7F80
61C0
00C0
00C0
1FC0
7FC0
60C0
C0C0
C0C0
E1C0
7FF0
3C70
ENDCHAR
STARTCHAR acircumflex
ENCODING 226
SWIDTH 602 0
DWIDTH 14 0
BBX 12 19 1 0
BITMAP
0700
0F00
1980
10C0
0000
0000
3F00
7F80
61C0
00C0
00C0
1FC0
7FC0
60C0
C0C0
C0C0
E1C0
7FF0
3C70
ENDCHAR
STARTCHAR atilde
ENCODING 227
SWIDTH 602 0
DWIDTH 14 0
BBX 12 18 1 0
BITMAP
1C40
3FC0
2380
0000
0000
3F00
7F80
61C0
00C0
00C0
1FC0
7FC0
60C0
C0C0
C0C0
E1C0
7FF0
3C70
ENDCHAR
STARTCHAR adieresis
ENCODING 228
SWIDTH 602 0
DWIDTH 14 0
BBX 12 17 1 0
BITMAP
39C0
39C0
0000
0000
3F00
7F80
61C0
00C0
00C0
1FC0
7FC0
60C0
C0C0
C0C0
E1C0
7FF0
3C70
ENDCHAR
STARTCHAR aring
ENCODING 229
SWIDTH 602 0
DWIDTH 14 0
BBX 12 19 1 0
BITMAP
0600
0900
0900
0600
0000
0000
3F00
7F80
61C0
00C0
00C0
1FC0
7FC0
60C0
C0C0
C0C0
E1C0
7FF0
3C70
ENDCHAR
STARTCHAR ae
ENCODING 230
SWIDTH 602 0
DWIDTH 14 0
BBX 14 13 0 0
BITMAP
3EF0
7FF8
0798
030C
030C
1FFC
7FFC
E300
C300
C300
E784
7FFC
38F8
ENDCHAR
STARTCHAR ccedilla
ENCODING 231
SWIDTH 602 0
DWIDTH 14 0
BBX 11 18 2 -5
BITMAP
0FC0
3FE0
7020
6000
C000
C000
C000
C000
C000
6000
7020
3FE0
0FC0
0800
1C00
0600
0600
1C00
ENDCHAR
STARTCHAR egrave
ENCODING 232
SWIDTH 602 0
DWIDTH 14 0
BBX 11 19 1 0
BITMAP
1C00
0E00
0600
0300
0000
0000
1F00
3FC0
70C0
6060
C060
FFE0
FFE0
C000
C000
E000
7020
3FE0
0FC0
ENDCHAR
STARTCHAR eacute
ENCODING 233
SWIDTH 602 0
DWIDTH 14 0
BBX 11 19 1 0
BITMAP
01C0
0380
0300
0600
0000
0000
1F00
3FC0
70C0
6060
C060
FFE0
FFE0
C000
C000
E000
7020
3FE0
0FC0
ENDCHAR
STARTCHAR ecircumflex
ENCODING 234
SWIDTH 602 0
DWIDTH 14 0
BBX 11 19 1 0
BITMAP
0700
0F80
1980
18C0
0000
0000
1F00
3FC0
70C0
6060
C060
FFE0
FFE0
C000
C000
E000
7020
3FE0
0FC0
ENDCHAR
STARTCHAR edieresis
ENCODING 235
SWIDTH 602 0
DWIDTH 14 0
BBX 11 17 1 0
BITMAP
18C0
18C0
0000
0000
1F00
3FC0
70C0
6060
C060
FFE0
FFE0
C000
C000
E000
7020
3FE0
0FC0
ENDCHAR
STARTCHAR igrave
ENCODING 236
SWIDTH 602 0
DWIDTH 14 0
BBX 7 19 2 0
BITMAP
38
1C
0C
06
00
00
FE
FE
06
06
06
06
06
06
06
06
06
06
06
ENDCHAR
STARTCHAR iacute
ENCODING 237
SWIDTH 602 0
DWIDTH 14 0
BBX 9 19 2 0
BITMAP
0380
0700
0E00
0C00
0000
0000
FE00
FE00
0600
0600
0600
0600
0600
0600
0600
0600
0600
0600
0600
ENDCHAR
STARTCHAR icircumflex
ENCODING 238
SWIDTH 602 0
DWIDTH 14 0
BBX 9 19 2 0
BITMAP
0E00
1F00
1980
3180
0000
0000
FE00
FE00
0600
0600
0600
0600
0600
0600
0600
0600
0600
0600
0600
ENDCHAR
STARTCHAR idieresis
ENCODING 239
SWIDTH 602 0
DWIDTH 14 0
BBX 8 17 2 0
BITMAP
63
63
00
00
FE
FE
06
06
06
06
06
06
06
06
06
06
06
ENDCHAR
STARTCHAR eth
ENCODING 240
SWIDTH 602 0
DWIDTH 14 0
BBX 12 19 1 0
BITMAP
F100
FF00
1E00
1F00
3380
01C0
1FE0
3FE0
70E0
6070
C030
C030
C030
C030
C030
6060
70E0
3FC0
1F00
ENDCHAR
STARTCHAR ntilde
ENCODING 241
SWIDTH 602 0
DWIDTH 14 0
BBX 10 18 2 0
BITMAP
3880
7F80
4700
0000
0000
CF00
DF80
F1C0
E0C0
C0C0
C0C0
C0C0
C0C0
C0C0
C0C0
C0C0
C0C0
C0C0
ENDCHAR
STARTCHAR ograve
ENCODING 242
SWIDTH 602 0
DWIDTH 14 0
BBX 12 19 1 0
BITMAP
3800
0C00
0600
0300
0000
0000
1F80
3FC0
70E0
E060
C030
C030
C030
C030
C030
E070
70E0
3FC0
1F80
ENDCHAR
STARTCHAR oacute
ENCODING 243
SWIDTH 602 0
DWIDTH 14 0
BBX 12 19 1 0
BITMAP
01C0
0300
0600
0C00
0000
0000
1F80
3FC0
70E0
E060
C030
C030
C030
C030
C030
E070
70E0
3FC0
1F80
ENDCHAR
STARTCHAR ocircumflex
ENCODING 244
SWIDTH 602 0
DWIDTH 14 0
BBX 12 19 1 0
BITMAP
0F00
0F00
1980
30C0
0000
0000
1F80
3FC0
70E0
E060
C030
C030
C030
C030
C030
E070
70E0
3FC0
1F80
ENDCHAR
STARTCHAR otilde
ENCODING 245
SWIDTH 602 0
DWIDTH 14 0
BBX 12 18 1 0
BITMAP
1C40
3FC0
2380
0000
0000
1F80
3FC0
70E0
E060
C030
C030
C030
C030
C030
E070
70E0
3FC0
1F80
ENDCHAR
STARTCHAR odieresis
ENCODING 246
SWIDTH 602 0
DWIDTH 14 0
BBX 12 17 1 0
BITMAP
3180
3180
0000
0000
1F80
3FC0
70E0
E060
C030
C030
C030
C030
C030
E070
70E0
3FC0
1F80
ENDCHAR
STARTCHAR divide
ENCODING 247
SWIDTH 602 0
DWIDTH 14 0
BBX 12 13 1 0
BITMAP
0700
0700
0700
0000
0000
FFF0
FFF0
0000
0000
0000
0700
0700
0700
ENDCHAR
STARTCHAR oslash
ENCODING 248
SWIDTH 602 0
DWIDTH 14 0
BBX 12 13 1 0
BITMAP
1FB0
3FE0
70E0
E0E0
C1B0
C330
C630
CC30
D830
7060
70E0
7FC0
DF80
ENDCHAR
STARTCHAR ugrave
ENCODING 249
SWIDTH 602 0
DWIDTH 14 0
BBX 10 19 2 0
BITMAP
7000
3800
0C00
0600
0000
0000
C0C0
C0C0
C0C0
C0C0
C0C0
C0C0
C0C0
C0C0
C0C0
C1C0
E3C0
7EC0
3CC0
ENDCHAR
STARTCHAR uacute
ENCODING 250
SWIDTH 602 0
DWIDTH 14 0
BBX 10 19 2 0
BITMAP
0300
0600
0C00
1800
0000
0000
C0C0
C0C0
C0C0
C0C0
C0C0
C0C0
C0C0
C0C0
C0C0
C1C0
E3C0
7EC0
3CC0
ENDCHAR
STARTCHAR ucircumflex
ENCODING 251
SWIDTH 602 0
DWIDTH 14 0
BBX 10 19 2 0
BITMAP
1E00
1E00
3300
6180
0000
0000
C0C0
C0C0
C0C0
C0C0
C0C0
C0C0
C0C0
C0C0
C0C0
C1C0
E3C0
7EC0
3CC0
ENDCHAR
STARTCHAR udieresis
ENCODING 252
SWIDTH 602 0
DWIDTH 14 0
BBX 10 17 2 0
BITMAP
6300
6300
0000
0000
C0C0
C0C0
C0C0
C0C0
C0C0
C0C0
C0C0
C0C0
C0C0
C1C0
E3C0
7EC0
3CC0
ENDCHAR
STARTCHAR yacute
ENCODING 253
SWIDTH 602 0
DWIDTH 14 0
BBX 12 24 1 -5
BITMAP
01C0
0380
0700
0600
0000
0000
C030
6060
6060
7060
30C0
30C0
1980
1980
1D80
0F00
0F00
0600
0600
0600
0C00
1C00
7800
7000
ENDCHAR
STARTCHAR thorn
ENCODING 254
SWIDTH 602 0
DWIDTH 14 0
BBX 11 24 2 -5
BITMAP
C000
C000
C000
C000
C000
C000
CF00
DFC0
F0C0
E0E0
C060
C060
C060
C060
C060
C0C0
F1C0
FF80
DF00
C000
C000
C000
C000
C000
ENDCHAR
STARTCHAR ydieresis
ENCODING 255
SWIDTH 602 0
DWIDTH 14 0
BBX 12 22 1 -5
BITMAP
3180
3180
0000
0000
C030
6060
6060
7060
30C0
30C0
1980
1980
1D80
0F00
0F00
0600
0600
0600
0C00
1C00
7800
7000
ENDCHAR
STARTCHAR Amacron
ENCODING 256
SWIDTH 602 0
DWIDTH 14 0
BBX 14 19 0 0
BITMAP
1FE0
1FE0
0000
0000
0380
0780
0780
07C0
0CC0
0CE0
1860
1860
1870
3FF0
3FF0
7018
6018
6018
C00C
ENDCHAR
STARTCHAR amacron
ENCODING 257
SWIDTH 602 0
DWIDTH 14 0
BBX 12 17 1 0
BITMAP
3FC0
3FC0
0000
0000
3F00
7F80
61C0
00C0
00C0
1FC0
7FC0
60C0
C0C0
C0C0
E1C0
7FF0
3C70
ENDCHAR
STARTCHAR Abreve
ENCODING 258
SWIDTH 602 0
DWIDTH 14 0
BBX 14 19 0 0
BITMAP
1860
0FC0
0000
0000
0380
0780
0780
07C0
0CC0
0CE0
1860
1860
1870
3FF0
3FF0
7018
6018
6018
C00C
ENDCHAR
STARTCHAR abreve
ENCODING 259
SWIDTH 602 0
DWIDTH 14 0
BBX 12 19 1 0
BITMAP
3040
10C0
1F80
0F00
0000
0000
3F00
7F80
61C0
00C0
00C0
1FC0
7FC0
60C0
C0C0
C0C0
E1C0
7FF0
3C70
ENDCHAR
STARTCHAR Aogonek
ENCODING 260
SWIDTH 602 0
DWIDTH 14 0
BBX 14 20 0 -5
BITMAP
0380
0780
0780
07C0
0CC0
0CE0
1860
1860
1870
3FF0
3FF0
7018
6018
6018
C00C
0030
0030
0060
0060
0038
ENDCHAR
STARTCHAR aogonek
ENCODING 261
SWIDTH 602 0
DWIDTH 14 0
BBX 12 18 1 -5
BITMAP
3F00
7F80
61C0
00C0
00C0
1FC0
7FC0
60C0
C0C0
C0C0
E1C0
7FF0
3C70
0060
00C0
00C0
00C0
00F0
ENDCHAR
STARTCHAR Cacute
ENCODING 262
SWIDTH 602 0
DWIDTH 14 0
BBX 12 19 1 0
BITMAP
00C0
0180
0300
0000
07E0
1FF0
3830
7000
6000
C000
C000
C000
C000
C000
E000
7000
3810
1FF0
07E0
ENDCHAR
STARTCHAR cacute
ENCODING 263
SWIDTH 602 0
DWIDTH 14 0
BBX 11 19 2 0
BITMAP
01C0
0380
0300
0600
0000
0000
0FC0
3FE0
7020
6000
C000
C000
C000
C000
C000
6000
7020
3FE0
0FC0
ENDCHAR
STARTCHAR Ccircumflex
ENCODING 264
SWIDTH 602 0
DWIDTH 14 0
BBX 12 19 1 0
BITMAP
03C0
07E0
0C70
0000
07E0
1FF0
3830
7000
6000
C000
C000
C000
C000
C000
E000
7000
3810
1FF0
07E0
ENDCHAR
STARTCHAR ccircumflex
ENCODING 265
SWIDTH 602 0
DWIDTH 14 0
BBX 11 19 2 0
BITMAP
0700
0D80
0D80
18C0
0000
0000
0FC0
3FE0
7020
6000
C000
C000
C000
C000
C000
6000
7020
3FE0
0FC0
ENDCHAR
STARTCHAR Cdotaccent
ENCODING 266
SWIDTH 602 0
DWIDTH 14 0
BBX 12 19 1 0
BITMAP
0380
0380
0380
0000
07E0
1FF0
3830
7000
6000
C000
C000
C000
C000
C000
E000
7000
3810
1FF0
07E0
ENDCHAR
STARTCHAR cdotaccent
ENCODING 267
SWIDTH 602 0
DWIDTH 14 0
BBX 11 18 2 0
BITMAP
0E00
0E00
0E00
0000
0000
0FC0
3FE0
7020
6000
C000
C000
C000
C000
C000
6000
7020
3FE0
0FC0
ENDCHAR
STARTCHAR Ccaron
ENCODING 268
SWIDTH 602 0
DWIDTH 14 0
BBX 12 19 1 0
BITMAP
0C30
07E0
03C0
0000
07E0
1FF0
3830
7000
6000
C000
C000
C000
C000
C000
E000
7000
3810
1FF0
07E0
ENDCHAR
STARTCHAR ccaron
ENCODING 269
SWIDTH 602 0
DWIDTH 14 0
BBX 11 19 2 0
BITMAP
18C0
0D80
0F80
0700
0000
0000
0FC0
3FE0
7020
6000
C000
C000
C000
C000
C000
6000
7020
3FE0
0FC0
ENDCHAR
STARTCHAR Dcaron
ENCODING 270
SWIDTH 602 0
DWIDTH 14 0
BBX 12 19 2 0
BITMAP
C600
7E00
3C00
0000
FF00
FFC0
C1E0
C060
C070
C030
C030
C030
C030
C030
C070
C060
C1C0
FF80
FF00
ENDCHAR
STARTCHAR dcaron
ENCODING 271
SWIDTH 602 0
DWIDTH 14 0
BBX 11 19 1 0
BITMAP
C260
6660
3C60
3860
0060
0060
1F60
3FE0
71E0
6060
C060
C060
C060
C060
C060
C0E0
61E0
7F60
1E60
ENDCHAR
STARTCHAR Dcroat
ENCODING 272
SWIDTH 602 0
DWIDTH 14 0
BBX 14 15 0 0
BITMAP
3FC0
3FF0
3078
3018
301C
300C
FE0C
FE0C
300C
300C
301C
3018
3070
3FE0
3FC0
ENDCHAR
STARTCHAR dcroat
ENCODING 273
SWIDTH 602 0
DWIDTH 14 0
BBX 13 19 1 0
BITMAP
0060
0060
0060
07F8
0060
0060
1F60
3FE0
71E0
6060
C060
C060
C060
C060
C060
C0E0
61E0
7F60
1E60
ENDCHAR
STARTCHAR Emacron
ENCODING 274
SWIDTH 602 0
DWIDTH 14 0
BBX 11 19 2 0
BITMAP
7F80
7F80
0000
0000
FFC0
FFC0
C000
C000
C000
C000
FF80
FF80
C000
C000
C000
C000
C000
FFE0
FFE0
ENDCHAR
STARTCHAR emacron
ENCODING 275
SWIDTH 602 0
DWIDTH 14 0
BBX 11 17 1 0
BITMAP
3FE0
3FE0
0000
0000
1F00
3FC0
70C0
6060
C060
FFE0
FFE0
C000
C000
E000
7020
3FE0
0FC0
ENDCHAR
STARTCHAR Ebreve
ENCODING 276
SWIDTH 602 0
DWIDTH 14 0
BBX 11 19 2 0
BITMAP
2180
1F00
0000
0000
FFC0
FFC0
C000
C000
C000
C000
FF80
FF80
C000
C000
C000
C000
C000
FFE0
FFE0
ENDCHAR
STARTCHAR ebreve
ENCODING 277
SWIDTH 602 0
DWIDTH 14 0
BBX 11 19 1 0
BITMAP
3040
18C0
1FC0
0F00
0000
0000
1F00
3FC0
70C0
6060
C060
FFE0
FFE0
C000
C000
E000
7020
3FE0
0FC0
ENDCHAR
STARTCHAR Edotaccent
ENCODING 278
SWIDTH 602 0
DWIDTH 14 0
BBX 11 19 2 0
BITMAP
1C00
1C00
1C00
0000
FFC0
FFC0
C000
C000
C000
C000
FF80
FF80
C000
C000
C000
C000
C000
FFE0
FFE0
ENDCHAR
STARTCHAR edotaccent
ENCODING 279
SWIDTH 602 0
DWIDTH 14 0
BBX 11 18 1 0
BITMAP
0E00
0E00
0E00
0000
0000
1F00
3FC0
70C0
6060
C060
FFE0
FFE0
C000
C000
E000
7020
3FE0
0FC0
ENDCHAR
STARTCHAR Eogonek
ENCODING 280
SWIDTH 602 0
DWIDTH 14 0
BBX 11 20 2 -5
BITMAP
FFC0
FFC0
C000
C000
C000
C000
FF80
FF80
C000
C000
C000
C000
C000
FFE0
FFE0
0180
0300
0300
0300
01C0
ENDCHAR
STARTCHAR eogonek
ENCODING 281
SWIDTH 602 0
DWIDTH 14 0
BBX 11 18 1 -5
BITMAP
1F00
3FC0
70C0
6060
C060
FFE0
FFE0
C000
C000
E000
7020
3FE0
0FC0
0100
0300
0600
0700
0380
ENDCHAR
STARTCHAR Ecaron
ENCODING 282
SWIDTH 602 0
DWIDTH 14 0
BBX 11 19 2 0
BITMAP
3180
1B00
0F00
0000
FFC0
FFC0
C000
C000
C000
C000
FF80
FF80
C000
C000
C000
C000
C000
FFE0
FFE0
ENDCHAR
STARTCHAR ecaron
ENCODING 283
SWIDTH 602 0
DWIDTH 14 0
BBX 11 19 1 0
BITMAP
18C0
1D80
0F80
0700
0000
0000
1F00
3FC0
70C0
6060
C060
FFE0
FFE0
C000
C000
E000
7020
3FE0
0FC0
ENDCHAR
STARTCHAR Gcircumflex
ENCODING 284
SWIDTH 602 0
DWIDTH 14 0
BBX 12 19 1 0
BITMAP
03C0
06C0
0C60
0000
07E0
1FF0
3830
7000
6000
C000
C000
C1F0
C1F0
C030
E030
7030
3C30
1FF0
07E0
ENDCHAR
STARTCHAR gcircumflex
ENCODING 285
SWIDTH 602 0
DWIDTH 14 0
BBX 11 24 1 -5
BITMAP
0700
0F00
1980
30C0
0000
0000
1E60
3FE0
71E0
6060
C060
C060
C060
C060
C060
E0E0
61E0
7F60
1E60
0060
0060
40C0
7F80
3F00
ENDCHAR
STARTCHAR Gbreve
ENCODING 286
SWIDTH 602 0
DWIDTH 14 0
BBX 12 19 1 0
BITMAP
0C20
07C0
0000
0000
07E0
1FF0
3830
7000
6000
C000
C000
C1F0
C1F0
C030
E030
7030
3C30
1FF0
07E0
ENDCHAR
STARTCHAR gbreve
ENCODING 287
SWIDTH 602 0
DWIDTH 14 0
BBX 11 24 1 -5
BITMAP
30C0
30C0
1F80
0F00
0000
0000
1E60
3FE0
71E0
6060
C060
C060
C060
C060
C060
E0E0
61E0
7F60
1E60
0060
0060
40C0
7F80
3F00
ENDCHAR
STARTCHAR Gdotaccent
ENCODING 288
SWIDTH 602 0
DWIDTH 14 0
BBX 12 19 1 0
BITMAP
0380
0380
0380
0000
07E0
1FF0
3830
7000
6000
C000
C000
C1F0
C1F0
C030
E030
7030
3C30
1FF0
07E0
ENDCHAR
STARTCHAR gdotaccent
ENCODING 289
SWIDTH 602 0
DWIDTH 14 0
BBX 11 23 1 -5
BITMAP
0E00
0E00
0E00
0000
0000
1E60
3FE0
71E0
6060
C060
C060
C060
C060
C060
E0E0
61E0
7F60
1E60
0060
0060
40C0
7F80
3F00
ENDCHAR
STARTCHAR uni0122
ENCODING 290
SWIDTH 602 0
DWIDTH 14 0
BBX 12 20 1 -5
BITMAP
07E0
1FF0
3830
7000
6000
C000
C000
C1F0
C1F0
C030
E030
7030
3C30
1FF0
07E0
0200
0700
0180
0180
0700
ENDCHAR
STARTCHAR uni0123
ENCODING 291
SWIDTH 602 0
DWIDTH 14 0
BBX 11 24 1 -5
BITMAP
0200
0400
0600
0600
0000
0000
1E60
3FE0
71E0
6060
C060
C060
C060
C060
C060
E0E0
61E0
7F60
1E60
0060
00E0
41C0
7F80
3F00
ENDCHAR
STARTCHAR Hcircumflex
ENCODING 292
SWIDTH 602 0
DWIDTH 14 0
BBX 11 19 2 0
BITMAP
1E00
3F00
6180
0000
C060
C060
C060
C060
C060
C060
FFE0
FFE0
C060
C060
C060
C060
C060
C060
C060
ENDCHAR
STARTCHAR hcircumflex
ENCODING 293
SWIDTH 602 0
DWIDTH 14 0
BBX 11 19 2 0
BITMAP
C380
C7C0
CEC0
CC60
C000
C000
CF00
DF80
F1C0
E0C0
C0C0
C0C0
C0C0
C0C0
C0C0
C0C0
C0C0
C0C0
C0C0
ENDCHAR
STARTCHAR Hbar
ENCODING 294
SWIDTH 602 0
DWIDTH 14 0
BBX 14 15 0 0
BITMAP
3018
3018
FFFC
FFFC
3018
3018
3FF8
3FF8
3018
3018
3018
3018
3018
3018
3018
ENDCHAR
STARTCHAR hbar
ENCODING 295
SWIDTH 602 0
DWIDTH 14 0
BBX 12 19 0 0
BITMAP
3000
3000
3000
FE00
3000
3000
33C0
37E0
3C70
3830
3030
3030
3030
3030
3030
3030
3030
3030
3030
ENDCHAR
STARTCHAR Itilde
ENCODING 296
SWIDTH 602 0
DWIDTH 14 0
BBX 10 19 2 0
BITMAP
3880
7F80
4700
0000
FFC0
FFC0
0C00
0C00
0C00
0C00
0C00
0C00
0C00
0C00
0C00
0C00
0C00
FFC0
FFC0
ENDCHAR
STARTCHAR itilde
ENCODING 297
SWIDTH 602 0
DWIDTH 14 0
BBX 8 18 2 0
BITMAP
71
FE
8E
00
00
FE
FE
06
06
06
06
06
06
06
06
06
06
06
ENDCHAR
STARTCHAR Imacron
ENCODING 298
SWIDTH 602 0
DWIDTH 14 0
BBX 10 19 2 0
BITMAP
7F80
7F80
0000
0000
FFC0
FFC0
0C00
0C00
0C00
0C00
0C00
0C00
0C00
0C00
0C00
0C00
0C00
FFC0
FFC0
ENDCHAR
STARTCHAR imacron
ENCODING 299
SWIDTH 602 0
DWIDTH 14 0
BBX 9 17 2 0
BITMAP
7F80
7F80
0000
0000
FE00
FE00
0600
0600
0600
0600
0600
0600
0600
0600
0600
0600
0600
ENDCHAR
STARTCHAR Ibreve
ENCODING 300
SWIDTH 602 0
DWIDTH 14 0
BBX 10 19 2 0
BITMAP
6180
3F00
0000
0000
FFC0
FFC0
0C00
0C00
0C00
0C00
0C00
0C00
0C00
0C00
0C00
0C00
0C00
FFC0
FFC0
ENDCHAR
STARTCHAR ibreve
ENCODING 301
SWIDTH 602 0
DWIDTH 14 0
BBX 9 19 2 0
BITMAP
6080
3180
3F00
1E00
0000
0000
FE00
FE00
0600
0600
0600
0600
0600
0600
0600
0600
0600
0600
0600
ENDCHAR
STARTCHAR Iogonek
ENCODING 302
SWIDTH 602 0
DWIDTH 14 0
BBX 10 20 2 -5
BITMAP
FFC0
FFC0
0C00
0C00
0C00
0C00
0C00
0C00
0C00
0C00
0C00
0C00
0C00
FFC0
FFC0
0300
0200
0600
0600
0380
ENDCHAR
STARTCHAR iogonek
ENCODING 303
SWIDTH 602 0
DWIDTH 14 0
BBX 7 24 2 -5
BITMAP
0E
0E
0E
00
00
00
FE
FE
06
06
06
06
06
06
06
06
06
06
06
0C
18
18
18
1E
ENDCHAR
STARTCHAR Idotaccent
ENCODING 304
SWIDTH 602 0
DWIDTH 14 0
BBX 10 19 2 0
BITMAP
1C00
1C00
1C00
0000
FFC0
FFC0
0C00
0C00
0C00
0C00
0C00
0C00
0C00
0C00
0C00
0C00
0C00
FFC0
FFC0
ENDCHAR
STARTCHAR dotlessi
ENCODING 305
SWIDTH 602 0
DWIDTH 14 0
BBX 7 13 2 0
BITMAP
FE
FE
06
06
06
06
06
06
06
06
06
06
06
ENDCHAR
STARTCHAR IJ
ENCODING 306
SWIDTH 602 0
DWIDTH 14 0
BBX 13 15 0 0
BITMAP
FCF8
FCF8
3018
3018
3018
3018
3018
3018
3018
3018
3018
3018
3018
FCF0
FCE0
ENDCHAR
STARTCHAR ij
ENCODING 307
SWIDTH 602 0
DWIDTH 14 0
BBX 11 24 1 -5
BITMAP
70E0
70E0
70E0
0000
0000
0000
F1E0
F1E0
3060
3060
3060
3060
3060
3060
3060
3060
3060
3060
3060
0060
0060
08E0
0FC0
0F80
ENDCHAR
STARTCHAR Jcircumflex
ENCODING 308
SWIDTH 602 0
DWIDTH 14 0
BBX 8 19 3 0
BITMAP
3C
36
63
00
7F
7F
03
03
03
03
03
03
03
03
03
03
06
FE
FC
ENDCHAR
STARTCHAR jcircumflex
ENCODING 309
SWIDTH 602 0
DWIDTH 14 0
BBX 9 24 2 -5
BITMAP
1E00
1E00
3300
6180
0000
0000
7F00
7F00
0300
0300
0300
0300
0300
0300
0300
0300
0300
0300
0300
0300
0300
8700
FE00
7C00
ENDCHAR
STARTCHAR uni0136
ENCODING 310
SWIDTH 602 0
DWIDTH 14 0
BBX 12 20 2 -5
BITMAP
C0E0
C1C0
C380
C700
CE00
CC00
D800
F800
DC00
CE00
C700
C380
C1C0
C0E0
C070
0080
01C0
0060
0060
01C0
ENDCHAR
STARTCHAR uni0137
ENCODING 311
SWIDTH 602 0
DWIDTH 14 0
BBX 11 24 2 -5
BITMAP
C000
C000
C000
C000
C000
C000
C1C0
C380
C700
CE00
DC00
D800
F800
DC00
CE00
C700
C380
C1C0
C0E0
0100
0180
00C0
0060
01C0
ENDCHAR
STARTCHAR kgreenlandic
ENCODING 312
SWIDTH 602 0
DWIDTH 14 0
BBX 9 13 3 0
BITMAP
C300
C700
C600
CE00
CC00
F800
FC00
CE00
C600
C600
C300
C300
C180
ENDCHAR
STARTCHAR Lacute
ENCODING 313
SWIDTH 602 0
DWIDTH 14 0
BBX 10 19 2 0
BITMAP
1800
3000
6000
0000
C000
C000
C000
C000
C000
C000
C000
C000
C000
C000
C000
C000
C000
FFC0
FFC0
ENDCHAR
STARTCHAR lacute
ENCODING 314
SWIDTH 602 0
DWIDTH 14 0
BBX 10 19 3 0
BITMAP
F8C0
F980
1B00
1E00
1800
1800
1800
1800
1800
1800
1800
1800
1800
1800
1800
1800
1800
1800
1800
ENDCHAR
STARTCHAR uni013B
ENCODING 315
SWIDTH 602 0
DWIDTH 14 0
BBX 10 20 2 -5
BITMAP
C000
C000
C000
C000
C000
C000
C000
C000
C000
C000
C000
C000
C000
FFC0
FFC0
0800
1C00
0600
0600
1C00
ENDCHAR
STARTCHAR uni013C
ENCODING 316
SWIDTH 602 0
DWIDTH 14 0
BBX 7 24 2 -5
BITMAP
FE
FE
06
06
06
06
06
06
06
06
06
06
06
06
06
06
06
06
06
18
18
0E
06
1C
ENDCHAR
STARTCHAR Lcaron
ENCODING 317
SWIDTH 602 0
DWIDTH 14 0
BBX 10 15 3 0
BITMAP
C600
C600
C200
C200
C400
C000
C000
C000
C000
C000
C000
C000
C000
FFC0
FFC0
ENDCHAR
STARTCHAR lcaron
ENCODING 318
SWIDTH 602 0
DWIDTH 14 0
BBX 10 19 2 0
BITMAP
FCC0
FCC0
0C40
0C40
0C80
0C00
0C00
0C00
0C00
0C00
0C00
0C00
0C00
0C00
0C00
0C00
0C00
0C00
0C00
ENDCHAR
STARTCHAR Ldot
ENCODING 319
SWIDTH 602 0
DWIDTH 14 0
BBX 10 15 2 0
BITMAP
C000
C000
C000
C000
C000
C1C0
C1C0
C1C0
C000
C000
C000
C000
C000
FFC0
FFC0
ENDCHAR
STARTCHAR ldot
ENCODING 320
SWIDTH 602 0
DWIDTH 14 0
BBX 12 19 2 0
BITMAP
FE00
FE00
0600
0600
0600
0600
0600
0600
0670
0670
0670
0600
0600
0600
0600
0600
0600
0600
0600
ENDCHAR
STARTCHAR Lslash
ENCODING 321
SWIDTH 602 0
DWIDTH 14 0
BBX 12 15 0 0
BITMAP
3000
3000
3000
3000
3000
3600
3E00
3800
F000
F000
3000
3000
3000
3FF0
3FF0
ENDCHAR
STARTCHAR lslash
ENCODING 322
SWIDTH 602 0
DWIDTH 14 0
BBX 10 19 2 0
BITMAP
FE00
FE00
0600
0600
0600
0600
0640
07C0
0780
0E00
3E00
3600
0600
0600
0600
0600
0600
0600
0600
ENDCHAR
STARTCHAR Nacute
ENCODING 323
SWIDTH 602 0
DWIDTH 14 0
BBX 11 19 2 0
BITMAP
0700
0600
0C00
0000
E060
E060
F060
F060
D860
DC60
CC60
CE60
C660
C360
C360
C1E0
C1E0
C0E0
C0E0
ENDCHAR
STARTCHAR nacute
ENCODING 324
SWIDTH 602 0
DWIDTH 14 0
BBX 10 19 2 0
BITMAP
0380
0700
0E00
0C00
0000
0000
CF00
DF80
F1C0
E0C0
C0C0
C0C0
C0C0
C0C0
C0C0
C0C0
C0C0
C0C0
C0C0
ENDCHAR
STARTCHAR uni0145
ENCODING 325
SWIDTH 602 0
DWIDTH 14 0
BBX 11 20 2 -5
BITMAP
E060
E060
F060
F060
D860
DC60
CC60
CE60
C660
C360
C360
C1E0
C1E0
C0E0
C0E0
0800
1C00
0600
0600
1C00
ENDCHAR
STARTCHAR uni0146
ENCODING 326
SWIDTH 602 0
DWIDTH 14 0
BBX 10 18 2 -5
BITMAP
CF00
DF80
F1C0
E0C0
C0C0
C0C0
C0C0
C0C0
C0C0
C0C0
C0C0
C0C0
C0C0
0800
1800
0600
0600
1C00
ENDCHAR
STARTCHAR Ncaron
ENCODING 327
SWIDTH 602 0
DWIDTH 14 0
BBX 11 19 2 0
BITMAP
3180
1B00
1E00
0000
E060
E060
F060
F060
D860
DC60
CC60
CE60
C660
C360
C360
C1E0
C1E0
C0E0
C0E0
ENDCHAR
STARTCHAR ncaron
ENCODING 328
SWIDTH 602 0
DWIDTH 14 0
BBX 10 19 2 0
BITMAP
2180
3300
1F00
0E00
0000
0000
CF00
DF80
F1C0
E0C0
C0C0
C0C0
C0C0
C0C0
C0C0
C0C0
C0C0
C0C0
C0C0
ENDCHAR
STARTCHAR napostrophe
ENCODING 329
SWIDTH 602 0
DWIDTH 14 0
BBX 11 19 1 0
BITMAP
C000
C000
4000
C000
8000
0000
6780
6FC0
78E0
7060
6060
6060
6060
6060
6060
6060
6060
6060
6060
ENDCHAR
STARTCHAR Eng
ENCODING 330
SWIDTH 602 0
DWIDTH 14 0
BBX 11 20 2 -5
BITMAP
E060
E060
F060
F060
D860
DC60
CC60
CE60
C660
C360
C360
C1E0
C1E0
C0E0
C0E0
0060
0060
00E0
07C0
0780
ENDCHAR
STARTCHAR eng
ENCODING 331
SWIDTH 602 0
DWIDTH 14 0
BBX 10 18 2 -5
BITMAP
CF00
DF80
F1C0
E0C0
C0C0
C0C0
C0C0
C0C0
C0C0
C0C0
C0C0
C0C0
C0C0
00C0
00C0
01C0
0F80
0F00
ENDCHAR
STARTCHAR Omacron
ENCODING 332
SWIDTH 602 0
DWIDTH 14 0
BBX 13 19 1 0
BITMAP
3FC0
3FC0
0000
0000
0F80
3FE0
7070
6030
E038
C018
C018
C018
C018
C018
E038
6030
7070
3FE0
0F80
ENDCHAR
STARTCHAR omacron
ENCODING 333
SWIDTH 602 0
DWIDTH 14 0
BBX 12 17 1 0
BITMAP
3FC0
3FC0
0000
0000
1F80
3FC0
70E0
E060
C030
C030
C030
C030
C030
E070
70E0
3FC0
1F80
ENDCHAR
STARTCHAR Obreve
ENCODING 334
SWIDTH 602 0
DWIDTH 14 0
BBX 13 19 1 0
BITMAP
30C0
1F80
0000
0000
0F80
3FE0
7070
6030
E038
C018
C018
C018
C018
C018
E038
6030
7070
3FE0
0F80
ENDCHAR
STARTCHAR obreve
ENCODING 335
SWIDTH 602 0
DWIDTH 14 0
BBX 12 19 1 0
BITMAP
30C0
30C0
1F80
0F00
0000
0000
1F80
3FC0
70E0
E060
C030
C030
C030
C030
C030
E070
70E0
3FC0
1F80
ENDCHAR
STARTCHAR Ohungarumlaut
ENCODING 336
SWIDTH 602 0
DWIDTH 14 0
BBX 13 19 1 0
BITMAP
0770
0CC0
0880
0000
0F80
3FE0
7070
6030
E038
C018
C018
C018
C018
C018
E038
6030
7070
3FE0
0F80
ENDCHAR
STARTCHAR ohungarumlaut
ENCODING 337
SWIDTH 602 0
DWIDTH 14 0
BBX 12 19 1 0
BITMAP
0330
0660
0CC0
0880
0000
0000
1F80
3FC0
70E0
E060
C030
C030
C030
C030
C030
E070
70E0
3FC0
1F80
ENDCHAR
STARTCHAR OE
ENCODING 338
SWIDTH 602 0
DWIDTH 14 0
BBX 13 15 1 0
BITMAP
3FF8
7FF8
6300
C300
C300
C300
C3F0
C3F0
C300
C300
C300
C300
6300
7FF8
3FF8
ENDCHAR
STARTCHAR oe
ENCODING 339
SWIDTH 602 0
DWIDTH 14 0
BBX 13 13 1 0
BITMAP
3CE0
7DF0
6790
C318
C318
C3F8
C3F8
C300
C300
C300
6788
7DF8
3CF0
ENDCHAR
STARTCHAR Racute
ENCODING 340
SWIDTH 602 0
DWIDTH 14 0
BBX 11 19 2 0
BITMAP
0600
0C00
1800
0000
FF00
FF80
C1C0
C0C0
C0C0
C0C0
C380
FF00
FC00
C600
C700
C380
C1C0
C0C0
C060
ENDCHAR
STARTCHAR racute
ENCODING 341
SWIDTH 602 0
DWIDTH 14 0
BBX 9 19 3 0
BITMAP
0700
0E00
0C00
1800
0000
0000
CF80
DF80
F180
E180
C000
C000
C000
C000
C000
C000
C000
C000
C000
ENDCHAR
STARTCHAR uni0156
ENCODING 342
SWIDTH 602 0
DWIDTH 14 0
BBX 11 20 2 -5
BITMAP
FF00
FF80
C1C0
C0C0
C0C0
C0C0
C380
FF00
FC00
C600
C700
C380
C1C0
C0C0
C060
1800
1800
0E00
0600
1C00
ENDCHAR
STARTCHAR uni0157
ENCODING 343
SWIDTH 602 0
DWIDTH 14 0
BBX 9 18 3 -5
BITMAP
CF80
DF80
F180
E180
C000
C000
C000
C000
C000
C000
C000
C000
C000
8000
C000
6000
3000
E000
ENDCHAR
STARTCHAR Rcaron
ENCODING 344
SWIDTH 602 0
DWIDTH 14 0
BBX 11 19 2 0
BITMAP
6300
3600
3C00
0000
FF00
FF80
C1C0
C0C0
C0C0
C0C0
C380
FF00
FC00
C600
C700
C380
C1C0
C0C0
C060
ENDCHAR
STARTCHAR rcaron
ENCODING 345
SWIDTH 602 0
DWIDTH 14 0
BBX 9 19 3 0
BITMAP
6100
3300
3E00
1C00
0000
0000
CF80
DF80
F180
E180
C000
C000
C000
C000
C000
C000
C000
C000
C000
ENDCHAR
STARTCHAR Sacute
ENCODING 346
SWIDTH 602 0
DWIDTH 14 0
BBX 11 19 2 0
BITMAP
0700
0C00
1800
0000
3F80
7FC0
E0C0
C000
C000
F000
7C00
1F80
03C0
00E0
0060
0060
C0E0
FFC0
3F00
ENDCHAR
STARTCHAR sacute
ENCODING 347
SWIDTH 602 0
DWIDTH 14 0
BBX 10 19 2 0
BITMAP
0380
0700
0E00
0C00
0000
0000
3F00
7F80
E080
C000
E000
7C00
3F00
07C0
00C0
00C0
C1C0
FF80
7E00
ENDCHAR
STARTCHAR Scircumflex
ENCODING 348
SWIDTH 602 0
DWIDTH 14 0
BBX 11 19 2 0
BITMAP
1E00
3B00
3180
0000
3F80
7FC0
E0C0
C000
C000
F000
7C00
1F80
03C0
00E0
0060
0060
C0E0
FFC0
3F00
ENDCHAR
STARTCHAR scircumflex
ENCODING 349
SWIDTH 602 0
DWIDTH 14 0
BBX 10 19 2 0
BITMAP
0E00
1F00
3300
3180
0000
0000
3F00
7F80
E080
C000
E000
7C00
3F00
07C0
00C0
00C0
C1C0
FF80
7E00
ENDCHAR
STARTCHAR Scedilla
ENCODING 350
SWIDTH 602 0
DWIDTH 14 0
BBX 11 20 2 -5
BITMAP
3F80
7FC0
E0C0
C000
C000
F000
7C00
1F80
03C0
00E0
0060
0060
C0E0
FFC0
3F00
1800
1800
0E00
0600
1C00
ENDCHAR
STARTCHAR scedilla
ENCODING 351
SWIDTH 602 0
DWIDTH 14 0
BBX 10 18 2 -5
BITMAP
3F00
7F80
E080
C000
E000
7C00
3F00
07C0
00C0
00C0
C1C0
FF80
7E00
1000
1800
0C00
0600
1C00
ENDCHAR
STARTCHAR Scaron
ENCODING 352
SWIDTH 602 0
DWIDTH 14 0
BBX 11 19 2 0
BITMAP
3180
3F00
1E00
0000
3F80
7FC0
E0C0
C000
C000
F000
7C00
1F80
03C0
00E0
0060
0060
C0E0
FFC0
3F00
ENDCHAR
STARTCHAR scaron
ENCODING 353
SWIDTH 602 0
DWIDTH 14 0
BBX 10 19 2 0
BITMAP
2180
3300
1F00
0E00
0000
0000
3F00
7F80
E080
C000
E000
7C00
3F00
07C0
00C0
00C0
C1C0
FF80
7E00
ENDCHAR
STARTCHAR uni0162
ENCODING 354
SWIDTH 602 0
DWIDTH 14 0
BBX 14 20 0 -5
BITMAP
FFFC
FFFC
0300
0300
0300
0300
0300
0300
0300
0300
0300
0300
0300
0300
0300
0400
0600
0300
0180
0700
ENDCHAR
STARTCHAR uni0163
ENCODING 355
SWIDTH 602 0
DWIDTH 14 0
BBX 11 20 1 -5
BITMAP
1800
1800
FFE0
FFE0
1800
1800
1800
1800
1800
1800
1800
1800
1C00
0FE0
07E0
0400
0600
0300
0380
0700
ENDCHAR
STARTCHAR Tcaron
ENCODING 356
SWIDTH 602 0
DWIDTH 14 0
BBX 14 19 0 0
BITMAP
1860
0FC0
0780
0000
FFFC
FFFC
0300
0300
0300
0300
0300
0300
0300
0300
0300
0300
0300
0300
0300
ENDCHAR
STARTCHAR tcaron
ENCODING 357
SWIDTH 602 0
DWIDTH 14 0
BBX 11 19 1 0
BITMAP
0060
0060
0020
0020
1840
1800
FFE0
FFE0
1800
1800
1800
1800
1800
1800
1800
1800
1C00
0FE0
07E0
ENDCHAR
STARTCHAR Tbar
ENCODING 358
SWIDTH 602 0
DWIDTH 14 0
BBX 14 15 0 0
BITMAP
FFFC
FFFC
0300
0300
0300
0300
3FF0
3FF0
0300
0300
0300
0300
0300
0300
0300
ENDCHAR
STARTCHAR tbar
ENCODING 359
SWIDTH 602 0
DWIDTH 14 0
BBX 11 15 1 0
BITMAP
1800
1800
FFE0
FFE0
1800
1800
1800
7FC0
1800
1800
1800
1800
1C00
0FE0
07E0
ENDCHAR
STARTCHAR Utilde
ENCODING 360
SWIDTH 602 0
DWIDTH 14 0
BBX 11 19 2 0
BITMAP
3880
7F80
4700
0000
C060
C060
C060
C060
C060
C060
C060
C060
C060
C060
C060
E0E0
60C0
7FC0
1F00
ENDCHAR
STARTCHAR utilde
ENCODING 361
SWIDTH 602 0
DWIDTH 14 0
BBX 10 18 2 0
BITMAP
3880
7F80
4700
0000
0000
C0C0
C0C0
C0C0
C0C0
C0C0
C0C0
C0C0
C0C0
C0C0
C1C0
E3C0
7EC0
3CC0
ENDCHAR
STARTCHAR Umacron
ENCODING 362
SWIDTH 602 0
DWIDTH 14 0
BBX 11 19 2 0
BITMAP
7F80
7F80
0000
0000
C060
C060
C060
C060
C060
C060
C060
C060
C060
C060
C060
E0E0
60C0
7FC0
1F00
ENDCHAR
STARTCHAR umacron
ENCODING 363
SWIDTH 602 0
DWIDTH 14 0
BBX 10 17 2 0
BITMAP
7F80
7F80
0000
0000
C0C0
C0C0
C0C0
C0C0
C0C0
C0C0
C0C0
C0C0
C0C0
C1C0
E3C0
7EC0
3CC0
ENDCHAR
STARTCHAR Ubreve
ENCODING 364
SWIDTH 602 0
DWIDTH 14 0
BBX 11 19 2 0
BITMAP
6180
1F00
0000
0000
C060
C060
C060
C060
C060
C060
C060
C060
C060
C060
C060
E0E0
60C0
7FC0
1F00
ENDCHAR
STARTCHAR ubreve
ENCODING 365
SWIDTH 602 0
DWIDTH 14 0
BBX 10 19 2 0
BITMAP
6180
6180
3F00
1E00
0000
0000
C0C0
C0C0
C0C0
C0C0
C0C0
C0C0
C0C0
C0C0
C0C0
C1C0
E3C0
7EC0
3CC0
ENDCHAR
STARTCHAR Uring
ENCODING 366
SWIDTH 602 0
DWIDTH 14 0
BBX 11 19 2 0
BITMAP
0C00
1200
1200
0C00
C060
C060
C060
C060
C060
C060
C060
C060
C060
C060
C060
E0E0
60C0
7FC0
1F00
ENDCHAR
STARTCHAR uring
ENCODING 367
SWIDTH 602 0
DWIDTH 14 0
BBX 10 19 2 0
BITMAP
0C00
1200
1200
0C00
0000
0000
C0C0
C0C0
C0C0
C0C0
C0C0
C0C0
C0C0
C0C0
C0C0
C1C0
E3C0
7EC0
3CC0
ENDCHAR
STARTCHAR Uhungarumlaut
ENCODING 368
SWIDTH 602 0
DWIDTH 14 0
BBX 11 19 2 0
BITMAP
0660
0CC0
1100
0000
C060
C060
C060
C060
C060
C060
C060
C060
C060
C060
C060
E0E0
60C0
7FC0
1F00
ENDCHAR
STARTCHAR uhungarumlaut
ENCODING 369
SWIDTH 602 0
DWIDTH 14 0
BBX 11 19 2 0
BITMAP
0660
0CC0
1980
1100
0000
0000
C0C0
C0C0
C0C0
C0C0
C0C0
C0C0
C0C0
C0C0
C0C0
C1C0
E3C0
7EC0
3CC0
ENDCHAR
STARTCHAR Uogonek
ENCODING 370
SWIDTH 602 0
DWIDTH 14 0
BBX 11 20 2 -5
BITMAP
C060
C060
C060
C060
C060
C060
C060
C060
C060
C060
C060
E0E0
60C0
7FC0
1F00
0C00
0800
1800
1800
0E00
ENDCHAR
STARTCHAR uogonek
ENCODING 371
SWIDTH 602 0
DWIDTH 14 0
BBX 10 18 2 -5
BITMAP
C0C0
C0C0
C0C0
C0C0
C0C0
C0C0
C0C0
C0C0
C0C0
C1C0
E3C0
7EC0
3CC0
0100
0300
0600
0700
0380
ENDCHAR
STARTCHAR Wcircumflex
ENCODING 372
SWIDTH 602 0
DWIDTH 14 0
BBX 14 19 0 0
BITMAP
0780
0FC0
0C60
0000
C00C
C00C
C00C
4308
6388
6398
6798
6798
6498
64D0
34D0
34D0
38F0
3870
3870
ENDCHAR
STARTCHAR wcircumflex
ENCODING 373
SWIDTH 602 0
DWIDTH 14 0
BBX 14 19 0 0
BITMAP
0380
0780
0CC0
0860
0000
0000
C00C
C30C
E38C
6788
6798
6498
6498
6CD8
7CD0
38D0
3870
3870
3870
ENDCHAR
STARTCHAR Ycircumflex
ENCODING 374
SWIDTH 602 0
DWIDTH 14 0
BBX 14 19 0 0
BITMAP
0780
06C0
0C60
0000
E01C
7018
3030
3870
1C60
0CC0
0FC0
0780
0300
0300
0300
0300
0300
0300
0300
ENDCHAR
STARTCHAR ycircumflex
ENCODING 375
SWIDTH 602 0
DWIDTH 14 0
BBX 12 24 1 -5
BITMAP
0700
0F80
1980
10C0
0000
0000
C030
6060
6060
7060
30C0
30C0
1980
1980
1D80
0F00
0F00
0600
0600
0600
0C00
1C00
7800
7000
ENDCHAR
STARTCHAR Ydieresis
ENCODING 376
SWIDTH 602 0
DWIDTH 14 0
BBX 14 19 0 0
BITMAP
1860
1860
0000
0000
E01C
7018
3030
3870
1C60
0CC0
0FC0
0780
0300
0300
0300
0300
0300
0300
0300
ENDCHAR
STARTCHAR Zacute
ENCODING 377
SWIDTH 602 0
DWIDTH 14 0
BBX 12 19 1 0
BITMAP
0380
0700
0400
0000
7FF0
7FF0
0070
00E0
01C0
0380
0300
0600
0C00
1C00
3800
7000
E000
FFF0
FFF0
ENDCHAR
STARTCHAR zacute
ENCODING 378
SWIDTH 602 0
DWIDTH 14 0
BBX 11 19 2 0
BITMAP
0380
0600
0C00
1800
0000
0000
FFE0
FFE0
00E0
01C0
0380
0700
0E00
1C00
3800
7000
E000
FFE0
FFE0
ENDCHAR
STARTCHAR Zdotaccent
ENCODING 379
SWIDTH 602 0
DWIDTH 14 0
BBX 12 19 1 0
BITMAP
0E00
0E00
0E00
0000
7FF0
7FF0
0070
00E0
01C0
0380
0300
0600
0C00
1C00
3800
7000
E000
FFF0
FFF0
ENDCHAR
STARTCHAR zdotaccent
ENCODING 380
SWIDTH 602 0
DWIDTH 14 0
BBX 11 18 2 0
BITMAP
1C00
1C00
1C00
0000
0000
FFE0
FFE0
00E0
01C0
0380
0700
0E00
1C00
3800
7000
E000
FFE0
FFE0
ENDCHAR
STARTCHAR Zcaron
ENCODING 381
SWIDTH 602 0
DWIDTH 14 0
BBX 12 19 1 0
BITMAP
30C0
1F80
0F00
0000
7FF0
7FF0
0070
00E0
01C0
0380
0300
0600
0C00
1C00
3800
7000
E000
FFF0
FFF0
ENDCHAR
STARTCHAR zcaron
ENCODING 382
SWIDTH 602 0
DWIDTH 14 0
BBX 11 19 2 0
BITMAP
3180
3300
1F00
0E00
0000
0000
FFE0
FFE0
00E0
01C0
0380
0700
0E00
1C00
3800
7000
E000
FFE0
FFE0
ENDCHAR
STARTCHAR longs
ENCODING 383
SWIDTH 602 0
DWIDTH 14 0
BBX 11 19 3 0
BITMAP
07E0
0FE0
1C00
1800
1800
1800
F800
F800
1800
1800
1800
1800
1800
1800
1800
1800
1800
1800
1800
ENDCHAR
STARTCHAR florin
ENCODING 402
SWIDTH 602 0
DWIDTH 14 0
BBX 12 24 1 -5
BITMAP
01F0
03F0
0600
0600
0600
0600
1FC0
1FC0
0600
0600
0600
0600
0600
0600
0600
0600
0600
0600
0600
0600
0600
0600
FC00
F800
ENDCHAR
STARTCHAR Aringacute
ENCODING 506
SWIDTH 602 0
DWIDTH 14 0
BBX 14 19 0 0
BITMAP
0770
0ED0
0CD0
1870
0380
0780
0780
07C0
0CC0
0CE0
1860
1860
1870
3FF0
3FF0
7018
6018
6018
C00C
ENDCHAR
STARTCHAR aringacute
ENCODING 507
SWIDTH 602 0
DWIDTH 14 0
BBX 12 19 1 0
BITMAP
0DC0
1920
3120
61C0
0000
0000
3F00
7F80
61C0
00C0
00C0
1FC0
7FC0
60C0
C0C0
C0C0
E1C0
7FF0
3C70
ENDCHAR
STARTCHAR AEacute
ENCODING 508
SWIDTH 602 0
DWIDTH 14 0
BBX 14 19 0 0
BITMAP
00E0
01C0
0100
0000
03F8
03F8
0780
0780
0D80
0D80
0980
19F8
19F8
3180
3F80
7F80
6180
61FC
C1FC
ENDCHAR
STARTCHAR aeacute
ENCODING 509
SWIDTH 602 0
DWIDTH 14 0
BBX 14 19 0 0
BITMAP
00E0
01C0
0180
0300
0000
0000
3EF0
7FF8
0798
030C
030C
1FFC
7FFC
E300
C300
C300
E784
7FFC
38F8
ENDCHAR
STARTCHAR Oslashacute
ENCODING 510
SWIDTH 602 0
DWIDTH 14 0
BBX 13 19 1 0
BITMAP
0300
0600
0C00
0000
0F98
3FF0
7070
6070
C0F8
C198
C318
C618
C618
CC18
F838
7030
7070
7FE0
CF80
ENDCHAR
STARTCHAR oslashacute
ENCODING 511
SWIDTH 602 0
DWIDTH 14 0
BBX 12 19 1 0
BITMAP
01C0
0300
0600
0C00
0000
0000
1FB0
3FE0
70E0
E0E0
C1B0
C330
C630
CC30
D830
F060
70E0
7FC0
DF80
ENDCHAR
STARTCHAR uni0218
ENCODING 536
SWIDTH 602 0
DWIDTH 14 0
BBX 11 20 2 -5
BITMAP
3F80
7FC0
E0C0
C000
C000
F000
7C00
1F80
03C0
00E0
0060
0060
C0E0
FFC0
3F00
0000
0C00
0C00
0400
0800
ENDCHAR
STARTCHAR uni0219
ENCODING 537
SWIDTH 602 0
DWIDTH 14 0
BBX 10 18 2 -5
BITMAP
3F00
7F80
E080
C000
E000
7C00
3F00
07C0
00C0
00C0
C1C0
FF80
7E00
0000
0C00
0C00
0400
0C00
ENDCHAR
STARTCHAR uni021A
ENCODING 538
SWIDTH 602 0
DWIDTH 14 0
BBX 14 20 0 -5
BITMAP
FFFC
FFFC
0300
0300
0300
0300
0300
0300
0300
0300
0300
0300
0300
0300
0300
0000
0300
0300
0100
0200
ENDCHAR
STARTCHAR uni021B
ENCODING 539
SWIDTH 602 0
DWIDTH 14 0
BBX 11 20 1 -5
BITMAP
1800
1800
FFE0
FFE0
1800
1800
1800
1800
1800
1800
1800
1800
1C00
0FE0
07E0
0000
0300
0300
0100
0200
ENDCHAR
STARTCHAR circumflex
ENCODING 710
SWIDTH 602 0
DWIDTH 14 0
BBX 8 3 3 16
BITMAP
3C
7E
C3
ENDCHAR
STARTCHAR caron
ENCODING 711
SWIDTH 602 0
DWIDTH 14 0
BBX 8 3 3 16
BITMAP
C3
7E
3C
ENDCHAR
STARTCHAR uni02C9
ENCODING 713
SWIDTH 602 0
DWIDTH 14 0
BBX 8 2 3 17
BITMAP
FF
FF
ENDCHAR
STARTCHAR breve
ENCODING 728
SWIDTH 602 0
DWIDTH 14 0
BBX 8 2 3 17
BITMAP
C3
7E
ENDCHAR
STARTCHAR dotaccent
ENCODING 729
SWIDTH 602 0
DWIDTH 14 0
BBX 3 3 5 16
BITMAP
E0
E0
E0
ENDCHAR
STARTCHAR ring
ENCODING 730
SWIDTH 602 0
DWIDTH 14 0
BBX 4 4 5 15
BITMAP
60
90
90
60
ENDCHAR
STARTCHAR ogonek
ENCODING 731
SWIDTH 602 0
DWIDTH 14 0
BBX 4 5 4 -5
BITMAP
60
C0
C0
C0
70
ENDCHAR
STARTCHAR tilde
ENCODING 732
SWIDTH 602 0
DWIDTH 14 0
BBX 8 3 3 16
BITMAP
71
FF
8E
ENDCHAR
STARTCHAR hungarumlaut
ENCODING 733
SWIDTH 602 0
DWIDTH 14 0
BBX 8 3 4 16
BITMAP
33
66
CC
ENDCHAR
STARTCHAR uni037E
ENCODING 894
SWIDTH 602 0
DWIDTH 14 0
BBX 3 17 6 -4
BITMAP
E0
E0
E0
00
00
00
00
00
00
00
E0
E0
E0
60
60
40
C0
ENDCHAR
STARTCHAR tonos
ENCODING 900
SWIDTH 602 0
DWIDTH 14 0
BBX 2 4 6 15
BITMAP
C0
C0
C0
C0
ENDCHAR
STARTCHAR dieresistonos
ENCODING 901
SWIDTH 602 0
DWIDTH 14 0
BBX 9 4 3 15
BITMAP
1800
1800
D980
D980
ENDCHAR
STARTCHAR Alphatonos
ENCODING 902
SWIDTH 602 0
DWIDTH 14 0
BBX 14 15 0 0
BITMAP
6300
6780
6780
6580
0CC0
0CC0
18E0
1860
1860
3FF0
3FF0
6038
6018
6018
C00C
ENDCHAR
STARTCHAR anoteleia
ENCODING 903
SWIDTH 602 0
DWIDTH 14 0
BBX 3 3 6 5
BITMAP
E0
E0
E0
ENDCHAR
STARTCHAR Epsilontonos
ENCODING 904
SWIDTH 602 0
DWIDTH 14 0
BBX 14 15 0 0
BITMAP
CFF8
CFF8
CC00
CC00
0C00
0C00
0FF0
0FF0
0C00
0C00
0C00
0C00
0C00
0FFC
0FFC
ENDCHAR
STARTCHAR Etatonos
ENCODING 905
SWIDTH 602 0
DWIDTH 14 0
BBX 13 15 0 0
BITMAP
D818
D818
D818
D818
1818
1818
1FF8
1FF8
1818
1818
1818
1818
1818
1818
1818
ENDCHAR
STARTCHAR Iotatonos
ENCODING 906
SWIDTH 602 0
DWIDTH 14 0
BBX 13 15 0 0
BITMAP
CFF8
CFF8
C180
C180
0180
0180
0180
0180
0180
0180
0180
0180
0180
0FF8
0FF8
ENDCHAR
STARTCHAR Omicrontonos
ENCODING 908
SWIDTH 602 0
DWIDTH 14 0
BBX 14 15 0 0
BITMAP
C3C0
CFF0
DC38
D818
300C
300C
300C
300C
300C
300C
300C
1818
1C38
0FF0
07C0
ENDCHAR
STARTCHAR Upsilontonos
ENCODING 910
SWIDTH 602 0
DWIDTH 14 0
BBX 14 15 0 0
BITMAP
D804
DC1C
CE38
C630
0360
0340
03C0
01C0
0180
0180
0180
0180
0180
0180
0180
ENDCHAR
STARTCHAR Omegatonos
ENCODING 911
SWIDTH 602 0
DWIDTH 14 0
BBX 14 15 0 0
BITMAP
C3C0
CFF0
DC38
D818
300C
300C
300C
300C
300C
1008
1818
0C30
0660
3E7C
3E7C
ENDCHAR
STARTCHAR iotadieresistonos
ENCODING 912
SWIDTH 602 0
DWIDTH 14 0
BBX 10 19 2 0
BITMAP
1800
1800
D980
D980
0000
0000
1800
1800
1800
1800
1800
1800
1800
1800
1800
1800
1800
0FC0
0F80
ENDCHAR
STARTCHAR Alpha
ENCODING 913
SWIDTH 602 0
DWIDTH 14 0
BBX 14 15 0 0
BITMAP
0380
0780
0780
07C0
0CC0
0CE0
1860
1860
1870
3FF0
3FF0
7018
6018
6018
C00C
ENDCHAR
STARTCHAR Beta
ENCODING 914
SWIDTH 602 0
DWIDTH 14 0
BBX 10 15 2 0
BITMAP
FE00
FF00
C380
C180
C180
C300
FE00
FE00
C380
C1C0
C0C0
C0C0
C1C0
FF80
FF00
ENDCHAR
STARTCHAR Gamma
ENCODING 915
SWIDTH 602 0
DWIDTH 14 0
BBX 10 15 3 0
BITMAP
FFC0
FFC0
C000
C000
C000
C000
C000
C000
C000
C000
C000
C000
C000
C000
C000
ENDCHAR
STARTCHAR uni0394
ENCODING 916
SWIDTH 602 0
DWIDTH 14 0
BBX 14 15 0 0
BITMAP
0300
0780
0780
0DC0
0CC0
18E0
1860
3070
3030
7038
6038
6018
C01C
FFFC
FFFC
ENDCHAR
STARTCHAR Epsilon
ENCODING 917
SWIDTH 602 0
DWIDTH 14 0
BBX 11 15 2 0
BITMAP
FFC0
FFC0
C000
C000
C000
C000
FF80
FF80
C000
C000
C000
C000
C000
FFE0
FFE0
ENDCHAR
STARTCHAR Zeta
ENCODING 918
SWIDTH 602 0
DWIDTH 14 0
BBX 12 15 1 0
BITMAP
7FF0
7FF0
0070
00E0
01C0
0380
0300
0600
0C00
1C00
3800
7000
E000
FFF0
FFF0
ENDCHAR
STARTCHAR Eta
ENCODING 919
SWIDTH 602 0
DWIDTH 14 0
BBX 11 15 2 0
BITMAP
C060
C060
C060
C060
C060
C060
FFE0
FFE0
C060
C060
C060
C060
C060
C060
C060
ENDCHAR
STARTCHAR Theta
ENCODING 920
SWIDTH 602 0
DWIDTH 14 0
BBX 13 15 1 0
BITMAP
0F80
3FE0
7070
6030
E038
C018
DFD8
DFD8
C018
C018
E038
6030
7070
3FE0
0F80
ENDCHAR
STARTCHAR Iota
ENCODING 921
SWIDTH 602 0
DWIDTH 14 0
BBX 10 15 2 0
BITMAP
FFC0
FFC0
0C00
0C00
0C00
0C00
0C00
0C00
0C00
0C00
0C00
0C00
0C00
FFC0
FFC0
ENDCHAR
STARTCHAR Kappa
ENCODING 922
SWIDTH 602 0
DWIDTH 14 0
BBX 12 15 2 0
BITMAP
C0E0
C1C0
C380
C700
CE00
CC00
D800
F800
DC00
CE00
C700
C380
C1C0
C0E0
C070
ENDCHAR
STARTCHAR Lambda
ENCODING 923
SWIDTH 602 0
DWIDTH 14 0
BBX 14 15 0 0
BITMAP
0380
0780
0780
06C0
0CC0
0CE0
1860
1860
1870
3030
3030
6018
6018
6018
C00C
ENDCHAR
STARTCHAR Mu
ENCODING 924
SWIDTH 602 0
DWIDTH 14 0
BBX 12 15 1 0
BITMAP
E070
F070
F0F0
F0F0
D8B0
D9B0
D9B0
C930
CF30
CF30
C630
C630
C030
C030
C030
ENDCHAR
STARTCHAR Nu
ENCODING 925
SWIDTH 602 0
DWIDTH 14 0
BBX 11 15 2 0
BITMAP
E060
E060
F060
F060
D860
DC60
CC60
CE60
C660
C360
C360
C1E0
C1E0
C0E0
C0E0
ENDCHAR
STARTCHAR Xi
ENCODING 926
SWIDTH 602 0
DWIDTH 14 0
BBX 13 15 1 0
BITMAP
FFF8
FFF8
0000
0000
0000
0000
3FE0
3FE0
0000
0000
0000
0000
0000
FFF8
FFF8
ENDCHAR
STARTCHAR Omicron
ENCODING 927
SWIDTH 602 0
DWIDTH 14 0
BBX 13 15 1 0
BITMAP
0F80
3FE0
7070
6030
E038
C018
C018
C018
C018
C018
E038
6030
7070
3FE0
0F80
ENDCHAR
STARTCHAR Pi
ENCODING 928
SWIDTH 602 0
DWIDTH 14 0
BBX 11 15 2 0
BITMAP
FFE0
FFE0
C060
C060
C060
C060
C060
C060
C060
C060
C060
C060
C060
C060
C060
ENDCHAR
STARTCHAR Rho
ENCODING 929
SWIDTH 602 0
DWIDTH 14 0
BBX 10 15 3 0
BITMAP
FF00
FF80
C1C0
C0C0
C0C0
C0C0
C380
FF80
FE00
C000
C000
C000
C000
C000
C000
ENDCHAR
STARTCHAR Sigma
ENCODING 931
SWIDTH 602 0
DWIDTH 14 0
BBX 12 15 1 0
BITMAP
7FF0
7FF0
7000
3800
1C00
0E00
0600
0300
0600
0C00
1800
3000
6000
FFF0
FFF0
ENDCHAR
STARTCHAR Tau
ENCODING 932
SWIDTH 602 0
DWIDTH 14 0
BBX 14 15 0 0
BITMAP
FFFC
FFFC
0300
0300
0300
0300
0300
0300
0300
0300
0300
0300
0300
0300
0300
ENDCHAR
STARTCHAR Upsilon
ENCODING 933
SWIDTH 602 0
DWIDTH 14 0
BBX 14 15 0 0
BITMAP
E00C
F01C
3838
1C60
0EC0
06C0
0780
0380
0300
0300
0300
0300
0300
0300
0300
ENDCHAR
STARTCHAR Phi
ENCODING 934
SWIDTH 602 0
DWIDTH 14 0
BBX 14 15 0 0
BITMAP
0300
0300
1FE0
3FF0
7338
C31C
C30C
C30C
C30C
C30C
7338
3FF0
1FE0
0300
0300
ENDCHAR
STARTCHAR Chi
ENCODING 935
SWIDTH 602 0
DWIDTH 14 0
BBX 14 15 0 0
BITMAP
701C
3838
1830
1C60
0EC0
07C0
0380
0380
0780
0CC0
1CE0
1870
3030
6018
E01C
ENDCHAR
STARTCHAR Psi
ENCODING 936
SWIDTH 602 0
DWIDTH 14 0
BBX 14 15 0 0
BITMAP
C30C
E31C
6318
7338
3330
3330
3B70
1FE0
0FC0
0300
0300
0300
0300
0300
0300
ENDCHAR
STARTCHAR uni03A9
ENCODING 937
SWIDTH 602 0
DWIDTH 14 0
BBX 13 15 1 0
BITMAP
0F80
3FE0
7070
6030
C018
C018
C018
C018
C018
6030
6030
3060
18C0
F8F8
F8F8
ENDCHAR
STARTCHAR Iotadieresis
ENCODING 938
SWIDTH 602 0
DWIDTH 14 0
BBX 10 19 2 0
BITMAP
6180
6180
0000
0000
FFC0
FFC0
0C00
0C00
0C00
0C00
0C00
0C00
0C00
0C00
0C00
0C00
0C00
FFC0
FFC0
ENDCHAR
STARTCHAR Upsilondieresis
ENCODING 939
SWIDTH 602 0
DWIDTH 14 0
BBX 14 19 0 0
BITMAP
1860
1860
0000
0000
E00C
F01C
3838
1C60
0EC0
06C0
0780
0380
0300
0300
0300
0300
0300
0300
0300
ENDCHAR
STARTCHAR alphatonos
ENCODING 940
SWIDTH 602 0
DWIDTH 14 0
BBX 13 19 1 0
BITMAP
0600
0600
0600
0600
0000
0000
1E18
3E18
6710
6330
C1B0
C1E0
C1C0
C0C0
C1C0
C360
E770
7E30
3C38
ENDCHAR
STARTCHAR epsilontonos
ENCODING 941
SWIDTH 602 0
DWIDTH 14 0
BBX 11 19 2 0
BITMAP
0600
0600
0600
0600
0000
0000
0FE0
3FE0
7000
6000
C000
FFC0
FFC0
C000
C000
6000
7020
3FE0
0FC0
ENDCHAR
STARTCHAR etatonos
ENCODING 942
SWIDTH 602 0
DWIDTH 14 0
BBX 11 24 1 -5
BITMAP
0600
0600
0600
0600
0000
0000
E780
6FC0
78E0
7060
6060
6060
6060
6060
6060
6060
6060
6060
6060
0060
0060
0060
0060
0060
ENDCHAR
STARTCHAR iotatonos
ENCODING 943
SWIDTH 602 0
DWIDTH 14 0
BBX 7 19 5 0
BITMAP
C0
C0
C0
C0
00
00
C0
C0
C0
C0
C0
C0
C0
C0
C0
C0
C0
7E
7C
ENDCHAR
STARTCHAR upsilondieresistonos
ENCODING 944
SWIDTH 602 0
DWIDTH 14 0
BBX 11 19 2 0
BITMAP
0C00
0C00
6CC0
6CC0
0000
0000
C1C0
C0C0
C0C0
C060
C060
C060
C060
C060
C060
C0C0
61C0
7F80
1F00
ENDCHAR
STARTCHAR alpha
ENCODING 945
SWIDTH 602 0
DWIDTH 14 0
BBX 13 13 1 0
BITMAP
1E18
3E18
6710
6330
C1B0
C1E0
C1C0
C0C0
C1C0
C360
E770
7E30
3C38
ENDCHAR
STARTCHAR beta
ENCODING 946
SWIDTH 602 0
DWIDTH 14 0
BBX 11 24 2 -5
BITMAP
1F00
3F80
61C0
E0C0
C0C0
C0C0
C180
C300
DE00
DF80
C3C0
C0E0
C060
C060
C060
C0E0
E1C0
FF80
FF00
C000
C000
C000
C000
C000
ENDCHAR
STARTCHAR gamma
ENCODING 947
SWIDTH 602 0
DWIDTH 14 0
BBX 14 18 0 -5
BITMAP
E00C
7018
3018
3830
1870
1C60
0CC0
0EC0
0680
0780
0300
0300
0300
0300
0300
0300
0300
0300
ENDCHAR
STARTCHAR delta
ENCODING 948
SWIDTH 602 0
DWIDTH 14 0
BBX 11 19 1 0
BITMAP
3F00
7F00
C000
C000
E000
7800
1E00
0F00
3F80
71C0
60E0
C060
C060
C060
C060
E0E0
71C0
3F80
1F00
ENDCHAR
STARTCHAR epsilon
ENCODING 949
SWIDTH 602 0
DWIDTH 14 0
BBX 11 13 2 0
BITMAP
0FE0
3FE0
7000
6000
C000
FFC0
FFC0
C000
C000
6000
7020
3FE0
0FC0
ENDCHAR
STARTCHAR zeta
ENCODING 950
SWIDTH 602 0
DWIDTH 14 0
BBX 14 24 0 -5
BITMAP
001C
007C
80F8
FFE0
3F00
0600
0C00
1C00
1800
1800
3000
3000
3000
3000
3000
3800
1C00
0FF0
07FC
000C
000C
001C
01F8
01F0
ENDCHAR
STARTCHAR eta
ENCODING 951
SWIDTH 602 0
DWIDTH 14 0
BBX 11 18 1 -5
BITMAP
E780
6FC0
78E0
7060
6060
6060
6060
6060
6060
6060
6060
6060
6060
0060
0060
0060
0060
0060
ENDCHAR
STARTCHAR theta
ENCODING 952
SWIDTH 602 0
DWIDTH 14 0
BBX 11 19 1 0
BITMAP
1F00
3F80
71C0
60C0
60C0
C060
C060
C060
FFE0
FFE0
C060
C060
C060
C060
60C0
60C0
71C0
3F80
1F00
ENDCHAR
STARTCHAR iota
ENCODING 953
SWIDTH 602 0
DWIDTH 14 0
BBX 7 13 5 0
BITMAP
C0
C0
C0
C0
C0
C0
C0
C0
C0
C0
C0
7E
7C
ENDCHAR
STARTCHAR kappa
ENCODING 954
SWIDTH 602 0
DWIDTH 14 0
BBX 11 13 2 0
BITMAP
C0C0
C1C0
C300
C600
CC00
D800
F800
DC00
CE00
C700
C380
C1C0
C0E0
ENDCHAR
STARTCHAR lambda
ENCODING 955
SWIDTH 602 0
DWIDTH 14 0
BBX 12 19 1 0
BITMAP
7000
7800
1800
1C00
0C00
0E00
0600
0600
0F00
0F00
1B00
1B80
1980
31C0
30C0
60C0
60E0
6060
C070
ENDCHAR
STARTCHAR uni03BC
ENCODING 956
SWIDTH 602 0
DWIDTH 14 0
BBX 11 18 2 -5
BITMAP
C0C0
C0C0
C0C0
C0C0
C0C0
C0C0
C0C0
C0C0
C0C0
C1C0
F3C0
FEC0
DEE0
C000
C000
C000
C000
C000
ENDCHAR
STARTCHAR nu
ENCODING 957
SWIDTH 602 0
DWIDTH 14 0
BBX 12 13 1 0
BITMAP
E030
6030
6030
3030
3060
3860
1860
1CC0
0CC0
0D80
0F80
0700
0700
ENDCHAR
STARTCHAR xi
ENCODING 958
SWIDTH 602 0
DWIDTH 14 0
BBX 13 24 0 -5
BITMAP
81F0
FFF0
3F00
1800
1800
1800
1C00
0E00
03E0
07E0
1C00
1800
3000
3000
3000
3000
1800
1FE0
07F8
0018
0018
0038
03F0
03C0
ENDCHAR
STARTCHAR omicron
ENCODING 959
SWIDTH 602 0
DWIDTH 14 0
BBX 12 13 1 0
BITMAP
1F80
3FC0
70E0
E060
C030
C030
C030
C030
C030
E070
70E0
3FC0
1F80
ENDCHAR
STARTCHAR pi
ENCODING 960
SWIDTH 602 0
DWIDTH 14 0
BBX 13 13 0 0
BITMAP
FFF8
FFF8
9860
1860
1860
1860
1860
1860
1860
1860
1860
1860
1830
ENDCHAR
STARTCHAR rho
ENCODING 961
SWIDTH 602 0
DWIDTH 14 0
BBX 11 18 2 -5
BITMAP
1F00
3FC0
71C0
60E0
C060
C060
C060
C060
C0E0
C0C0
E180
FF00
FE00
C000
C000
C000
C000
C000
ENDCHAR
STARTCHAR sigma1
ENCODING 962
SWIDTH 602 0
DWIDTH 14 0
BBX 12 18 1 -5
BITMAP
07E0
1FE0
3800
7000
6000
C000
C000
C000
C000
C000
7000
3FC0
1FE0
0030
0030
0070
07E0
07C0
ENDCHAR
STARTCHAR sigma
ENCODING 963
SWIDTH 602 0
DWIDTH 14 0
BBX 13 13 1 0
BITMAP
1FF8
3FF8
71C0
E0E0
C060
C060
C060
C060
C060
E0C0
71C0
3F80
1F00
ENDCHAR
STARTCHAR tau
ENCODING 964
SWIDTH 602 0
DWIDTH 14 0
BBX 13 13 1 0
BITMAP
FFF8
FFF8
0600
0600
0600
0600
0600
0600
0600
0600
0600
0600
0300
ENDCHAR
STARTCHAR upsilon
ENCODING 965
SWIDTH 602 0
DWIDTH 14 0
BBX 11 13 2 0
BITMAP
C1C0
C0C0
C0C0
C060
C060
C060
C060
C060
C060
C0C0
61C0
7F80
1F00
ENDCHAR
STARTCHAR phi
ENCODING 966
SWIDTH 602 0
DWIDTH 14 0
BBX 13 24 0 -5
BITMAP
0600
0600
0600
0600
0600
0600
1FC0
3FE0
7670
E630
C618
C618
C618
C618
C618
E630
6670
3FE0
1FC0
0600
0600
0600
0600
0600
ENDCHAR
STARTCHAR chi
ENCODING 967
SWIDTH 602 0
DWIDTH 14 0
BBX 12 18 1 -5
BITMAP
E060
60C0
70C0
3180
3980
1B00
0F00
0E00
0600
0E00
0F00
1B00
1980
3180
30C0
60E0
6060
C070
ENDCHAR
STARTCHAR psi
ENCODING 968
SWIDTH 602 0
DWIDTH 14 0
BBX 12 20 1 -5
BITMAP
0600
0600
C660
C630
C630
C630
C630
C630
C630
C630
C630
E660
76E0
3FC0
1F80
0600
0600
0600
0600
0600
ENDCHAR
STARTCHAR omega
ENCODING 969
SWIDTH 602 0
DWIDTH 14 0
BBX 13 13 0 0
BITMAP
7030
6330
6338
C318
C318
C318
C318
C318
C318
C718
67B0
7CF0
38E0
ENDCHAR
STARTCHAR iotadieresis
ENCODING 970
SWIDTH 602 0
DWIDTH 14 0
BBX 10 17 2 0
BITMAP
C300
C300
0000
0000
1800
1800
1800
1800
1800
1800
1800
1800
1800
1800
1800
0FC0
0F80
ENDCHAR
STARTCHAR upsilondieresis
ENCODING 971
SWIDTH 602 0
DWIDTH 14 0
BBX 11 17 2 0
BITMAP
6180
6180
0000
0000
C1C0
C0C0
C0C0
C060
C060
C060
C060
C060
C060
C0C0
61C0
7F80
1F00
ENDCHAR
STARTCHAR omicrontonos
ENCODING 972
SWIDTH 602 0
DWIDTH 14 0
BBX 12 19 1 0
BITMAP
0600
0600
0600
0600
0000
0000
1F80
3FC0
70E0
E060
C030
C030
C030
C030
C030
E070
70E0
3FC0
1F80
ENDCHAR
STARTCHAR upsilontonos
ENCODING 973
SWIDTH 602 0
DWIDTH 14 0
BBX 11 19 2 0
BITMAP
0C00
0C00
0C00
0C00
0000
0000
C1C0
C0C0
C0C0
C060
C060
C060
C060
C060
C060
C0C0
61C0
7F80
1F00
ENDCHAR
STARTCHAR omegatonos
ENCODING 974
SWIDTH 602 0
DWIDTH 14 0
BBX 13 19 0 0
BITMAP
0300
0300
0300
0300
0000
0000
7030
6330
6338
C318
C318
C318
C318
C318
C318
C718
67B0
7CF0
38E0
ENDCHAR
STARTCHAR uni0401
ENCODING 1025
SWIDTH 602 0
DWIDTH 14 0
BBX 11 19 2 0
BITMAP
30C0
30C0
0000
0000
FFC0
FFC0
C000
C000
C000
C000
FF80
FF80
C000
C000
C000
C000
C000
FFE0
FFE0
ENDCHAR
STARTCHAR uni0402
ENCODING 1026
SWIDTH 602 0
DWIDTH 14 0
BBX 14 15 0 0
BITMAP
FFC0
FFC0
0C00
0C00
0C00
0CF0
0FF8
0E1C
0C0C
0C0C
0C0C
0C0C
0C1C
0C78
0C70
ENDCHAR
STARTCHAR uni0403
ENCODING 1027
SWIDTH 602 0
DWIDTH 14 0
BBX 10 19 3 0
BITMAP
0600
0C00
1800
0000
FFC0
FFC0
C000
C000
C000
C000
C000
C000
C000
C000
C000
C000
C000
C000
C000
ENDCHAR
STARTCHAR uni0404
ENCODING 1028
SWIDTH 602 0
DWIDTH 14 0
BBX 12 15 1 0
BITMAP
0FE0
1FF0
7810
6000
C000
C000
FF80
FF80
C000
C000
E000
6000
7810
3FF0
0FE0
ENDCHAR
STARTCHAR uni0405
ENCODING 1029
SWIDTH 602 0
DWIDTH 14 0
BBX 11 15 2 0
BITMAP
3F80
7FC0
E0C0
C000
C000
F000
7C00
1F80
03C0
00E0
0060
0060
C0E0
FFC0
3F00
ENDCHAR
STARTCHAR uni0406
ENCODING 1030
SWIDTH 602 0
DWIDTH 14 0
BBX 10 15 2 0
BITMAP
FFC0
FFC0
0C00
0C00
0C00
0C00
0C00
0C00
0C00
0C00
0C00
0C00
0C00
FFC0
FFC0
ENDCHAR
STARTCHAR uni0407
ENCODING 1031
SWIDTH 602 0
DWIDTH 14 0
BBX 10 19 2 0
BITMAP
6180
6180
0000
0000
FFC0
FFC0
0C00
0C00
0C00
0C00
0C00
0C00
0C00
0C00
0C00
0C00
0C00
FFC0
FFC0
ENDCHAR
STARTCHAR uni0408
ENCODING 1032
SWIDTH 602 0
DWIDTH 14 0
BBX 8 15 3 0
BITMAP
7F
7F
03
03
03
03
03
03
03
03
03
03
06
FE
FC
ENDCHAR
STARTCHAR uni0409
ENCODING 1033
SWIDTH 602 0
DWIDTH 14 0
BBX 14 15 0 0
BITMAP
3F80
3F80
3180
3180
3180
3180
31F0
31F8
319C
318C
318C
318C
319C
E1F8
C1E0
ENDCHAR
STARTCHAR uni040A
ENCODING 1034
SWIDTH 602 0
DWIDTH 14 0
BBX 13 15 1 0
BITMAP
C600
C600
C600
C600
C600
C600
FFC0
FFF0
C638
C618
C618
C618
C630
C7F0
C7C0
ENDCHAR
STARTCHAR uni040B
ENCODING 1035
SWIDTH 602 0
DWIDTH 14 0
BBX 13 15 0 0
BITMAP
FF80
FF80
1800
1800
1800
19E0
1FF0
1E38
1818
1818
1818
1818
1818
1818
1818
ENDCHAR
STARTCHAR uni040C
ENCODING 1036
SWIDTH 602 0
DWIDTH 14 0
BBX 11 19 2 0
BITMAP
0700
0C00
0800
0000
C0C0
C1C0
C380
C300
C600
CE00
F800
FC00
CE00
C700
C300
C180
C1C0
C0C0
C060
ENDCHAR
STARTCHAR uni040E
ENCODING 1038
SWIDTH 602 0
DWIDTH 14 0
BBX 14 19 0 0
BITMAP
0860
07C0
0000
0000
C01C
6018
6038
3030
3060
1860
18C0
0DC0
0D80
0700
0700
0600
0E00
7C00
7800
ENDCHAR
STARTCHAR uni040F
ENCODING 1039
SWIDTH 602 0
DWIDTH 14 0
BBX 11 18 1 -3
BITMAP
C060
C060
C060
C060
C060
C060
C060
C060
C060
C060
C060
C060
C060
FFE0
FFE0
0C00
0C00
0C00
ENDCHAR
STARTCHAR uni0410
ENCODING 1040
SWIDTH 602 0
DWIDTH 14 0
BBX 14 15 0 0
BITMAP
0380
0780
0780
07C0
0CC0
0CE0
1860
1860
1870
3FF0
3FF0
7018
6018
6018
C00C
ENDCHAR
STARTCHAR uni0411
ENCODING 1041
SWIDTH 602 0
DWIDTH 14 0
BBX 10 15 2 0
BITMAP
FF80
FF80
C000
C000
C000
C000
FF00
FF80
C1C0
C0C0
C0C0
C0C0
C180
FF80
FE00
ENDCHAR
STARTCHAR uni0412
ENCODING 1042
SWIDTH 602 0
DWIDTH 14 0
BBX 10 15 2 0
BITMAP
FE00
FF00
C380
C180
C180
C300
FE00
FE00
C380
C1C0
C0C0
C0C0
C1C0
FF80
FF00
ENDCHAR
STARTCHAR uni0413
ENCODING 1043
SWIDTH 602 0
DWIDTH 14 0
BBX 10 15 3 0
BITMAP
FFC0
FFC0
C000
C000
C000
C000
C000
C000
C000
C000
C000
C000
C000
C000
C000
ENDCHAR
STARTCHAR uni0414
ENCODING 1044
SWIDTH 602 0
DWIDTH 14 0
BBX 14 18 0 -3
BITMAP
0FF0
0FF0
0C30
0C30
0C30
0C30
0C30
0C30
1830
1830
1830
3830
3030
FFFC
FFFC
C00C
C00C
C00C
ENDCHAR
STARTCHAR uni0415
ENCODING 1045
SWIDTH 602 0
DWIDTH 14 0
BBX 11 15 2 0
BITMAP
FFC0
FFC0
C000
C000
C000
C000
FF80
FF80
C000
C000
C000
C000
C000
FFE0
FFE0
ENDCHAR
STARTCHAR uni0416
ENCODING 1046
SWIDTH 602 0
DWIDTH 14 0
BBX 14 15 0 0
BITMAP
C30C
E31C
7338
3330
3B70
1B60
0FC0
0FC0
1B60
1B60
3330
3330
6318
6318
E31C
ENDCHAR
STARTCHAR uni0417
ENCODING 1047
SWIDTH 602 0
DWIDTH 14 0
BBX 11 15 1 0
BITMAP
7F80
FFC0
80E0
0060
0060
00C0
1F80
1FC0
01C0
0060
0060
0060
81E0
FFC0
7F00
ENDCHAR
STARTCHAR uni0418
ENCODING 1048
SWIDTH 602 0
DWIDTH 14 0
BBX 11 15 2 0
BITMAP
C060
C0E0
C1E0
C1E0
C3E0
C360
C660
CE60
CC60
D860
D860
F060
F060
E060
C060
ENDCHAR
STARTCHAR uni0419
ENCODING 1049
SWIDTH 602 0
DWIDTH 14 0
BBX 11 19 2 0
BITMAP
6180
1F00
0000
0000
C060
C0E0
C1E0
C1E0
C3E0
C360
C660
CE60
CC60
D860
D860
F060
F060
E060
C060
ENDCHAR
STARTCHAR uni041A
ENCODING 1050
SWIDTH 602 0
DWIDTH 14 0
BBX 11 15 2 0
BITMAP
C0C0
C1C0
C380
C300
C600
CE00
F800
FC00
CE00
C700
C300
C180
C1C0
C0C0
C060
ENDCHAR
STARTCHAR uni041B
ENCODING 1051
SWIDTH 602 0
DWIDTH 14 0
BBX 13 15 0 0
BITMAP
0FF8
0FF8
0C18
0C18
0C18
0C18
0C18
0C18
0C18
0C18
0C18
1818
3818
F018
E018
ENDCHAR
STARTCHAR uni041C
ENCODING 1052
SWIDTH 602 0
DWIDTH 14 0
BBX 12 15 1 0
BITMAP
E070
F070
F0F0
F0F0
D8B0
D9B0
D9B0
C930
CF30
CF30
C630
C630
C030
C030
C030
ENDCHAR
STARTCHAR uni041D
ENCODING 1053
SWIDTH 602 0
DWIDTH 14 0
BBX 11 15 2 0
BITMAP
C060
C060
C060
C060
C060
C060
FFE0
FFE0
C060
C060
C060
C060
C060
C060
C060
ENDCHAR
STARTCHAR uni041E
ENCODING 1054
SWIDTH 602 0
DWIDTH 14 0
BBX 13 15 1 0
BITMAP
0F80
3FE0
7070
6030
E038
C018
C018
C018
C018
C018
E038
6030
7070
3FE0
0F80
ENDCHAR
STARTCHAR uni041F
ENCODING 1055
SWIDTH 602 0
DWIDTH 14 0
BBX 11 15 2 0
BITMAP
FFE0
FFE0
C060
C060
C060
C060
C060
C060
C060
C060
C060
C060
C060
C060
C060
ENDCHAR
STARTCHAR uni0420
ENCODING 1056
SWIDTH 602 0
DWIDTH 14 0
BBX 10 15 3 0
BITMAP
FF00
FF80
C1C0
C0C0
C0C0
C0C0
C380
FF80
FE00
C000
C000
C000
C000
C000
C000
ENDCHAR
STARTCHAR uni0421
ENCODING 1057
SWIDTH 602 0
DWIDTH 14 0
BBX 12 15 1 0
BITMAP
07E0
1FF0
3830
7000
6000
C000
C000
C000
C000
C000
E000
7000
3810
1FF0
07E0
ENDCHAR
STARTCHAR uni0422
ENCODING 1058
SWIDTH 602 0
DWIDTH 14 0
BBX 14 15 0 0
BITMAP
FFFC
FFFC
0300
0300
0300
0300
0300
0300
0300
0300
0300
0300
0300
0300
0300
ENDCHAR
STARTCHAR uni0423
ENCODING 1059
SWIDTH 602 0
DWIDTH 14 0
BBX 14 15 0 0
BITMAP
C01C
6018
6038
3030
3060
1860
18C0
0DC0
0D80
0700
0700
0600
0E00
7C00
7800
ENDCHAR
STARTCHAR uni0424
ENCODING 1060
SWIDTH 602 0
DWIDTH 14 0
BBX 14 15 0 0
BITMAP
0300
0300
1FE0
3FF0
7338
C31C
C30C
C30C
C30C
C30C
7338
3FF0
1FE0
0300
0300
ENDCHAR
STARTCHAR uni0425
ENCODING 1061
SWIDTH 602 0
DWIDTH 14 0
BBX 14 15 0 0
BITMAP
701C
3838
1830
1C60
0EC0
07C0
0380
0380
0780
0CC0
1CE0
1870
3030
6018
E01C
ENDCHAR
STARTCHAR uni0426
ENCODING 1062
SWIDTH 602 0
DWIDTH 14 0
BBX 13 18 1 -3
BITMAP
C060
C060
C060
C060
C060
C060
C060
C060
C060
C060
C060
C060
C060
FFF8
FFF8
0018
0018
0018
ENDCHAR
STARTCHAR uni0427
ENCODING 1063
SWIDTH 602 0
DWIDTH 14 0
BBX 10 15 2 0
BITMAP
C0C0
C0C0
C0C0
C0C0
C0C0
C0C0
C0C0
E3C0
7FC0
3CC0
00C0
00C0
00C0
00C0
00C0
ENDCHAR
STARTCHAR uni0428
ENCODING 1064
SWIDTH 602 0
DWIDTH 14 0
BBX 12 15 1 0
BITMAP
C630
C630
C630
C630
C630
C630
C630
C630
C630
C630
C630
C630
C630
FFF0
FFF0
ENDCHAR
STARTCHAR uni0429
ENCODING 1065
SWIDTH 602 0
DWIDTH 14 0
BBX 13 18 1 -3
BITMAP
C630
C630
C630
C630
C630
C630
C630
C630
C630
C630
C630
C630
C630
FFF8
FFF8
0018
0018
0018
ENDCHAR
STARTCHAR uni042A
ENCODING 1066
SWIDTH 602 0
DWIDTH 14 0
BBX 13 15 0 0
BITMAP
FC00
FC00
0C00
0C00
0C00
0C00
0FE0
0FF0
0C38
0C18
0C18
0C18
0C38
0FF0
0FC0
ENDCHAR
STARTCHAR uni042B
ENCODING 1067
SWIDTH 602 0
DWIDTH 14 0
BBX 12 15 1 0
BITMAP
C030
C030
C030
C030
C030
C030
FC30
FE30
C730
C330
C330
C330
C630
FE30
F830
ENDCHAR
STARTCHAR uni042C
ENCODING 1068
SWIDTH 602 0
DWIDTH 14 0
BBX 11 15 3 0
BITMAP
C000
C000
C000
C000
C000
C000
FF00
FFC0
C0E0
C060
C060
C060
C1C0
FFC0
FF00
ENDCHAR
STARTCHAR uni042D
ENCODING 1069
SWIDTH 602 0
DWIDTH 14 0
BBX 12 15 1 0
BITMAP
7F00
FFC0
81E0
0060
0070
0030
1FF0
1FF0
0030
0030
0060
00E0
81C0
FF80
7E00
ENDCHAR
STARTCHAR uni042E
ENCODING 1070
SWIDTH 602 0
DWIDTH 14 0
BBX 13 15 1 0
BITMAP
C3C0
C7F0
C630
CE30
CC18
CC18
FC18
FC18
CC18
CC18
CC18
C638
C630
C7F0
C1C0
ENDCHAR
STARTCHAR uni042F
ENCODING 1071
SWIDTH 602 0
DWIDTH 14 0
BBX 12 15 0 0
BITMAP
07F0
1FF0
3830
3030
3030
3030
1C30
1FF0
03F0
0630
0C30
1C30
3830
7030
E030
ENDCHAR
STARTCHAR uni0430
ENCODING 1072
SWIDTH 602 0
DWIDTH 14 0
BBX 12 13 1 0
BITMAP
3F00
7F80
61C0
00C0
00C0
1FC0
7FC0
60C0
C0C0
C0C0
E1C0
7FF0
3C70
ENDCHAR
STARTCHAR uni0431
ENCODING 1073
SWIDTH 602 0
DWIDTH 14 0
BBX 11 19 1 0
BITMAP
0FC0
3FC0
3800
6000
6000
C000
CF00
DFC0
F0C0
E0E0
C060
C060
C060
C060
E060
60C0
71C0
3F80
1F00
ENDCHAR
STARTCHAR uni0432
ENCODING 1074
SWIDTH 602 0
DWIDTH 14 0
BBX 10 13 2 0
BITMAP
FF80
FFC0
C0C0
C0C0
C180
FF00
FF80
C180
C0C0
C0C0
C1C0
FFC0
FF00
ENDCHAR
STARTCHAR uni0433
ENCODING 1075
SWIDTH 602 0
DWIDTH 14 0
BBX 10 13 3 0
BITMAP
FFC0
FFC0
C000
C000
C000
C000
C000
C000
C000
C000
C000
C000
C000
ENDCHAR
STARTCHAR uni0434
ENCODING 1076
SWIDTH 602 0
DWIDTH 14 0
BBX 12 16 1 -3
BITMAP
1FC0
1FC0
18C0
18C0
18C0
18C0
38C0
30C0
30C0
70C0
60C0
FFF0
FFF0
C030
C030
C030
ENDCHAR
STARTCHAR uni0435
ENCODING 1077
SWIDTH 602 0
DWIDTH 14 0
BBX 11 13 1 0
BITMAP
1F00
3FC0
70C0
6060
C060
FFE0
FFE0
C000
C000
E000
7020
3FE0
0FC0
ENDCHAR
STARTCHAR uni0436
ENCODING 1078
SWIDTH 602 0
DWIDTH 14 0
BBX 14 13 0 0
BITMAP
6318
6318
3330
3330
1B60
1B60
0FC0
1B60
3B70
3330
7338
6318
E31C
ENDCHAR
STARTCHAR uni0437
ENCODING 1079
SWIDTH 602 0
DWIDTH 14 0
BBX 10 13 2 0
BITMAP
7F00
FFC0
81C0
00C0
01C0
1F00
1F80
01C0
00C0
00C0
81C0
FF80
7F00
ENDCHAR
STARTCHAR uni0438
ENCODING 1080
SWIDTH 602 0
DWIDTH 14 0
BBX 10 13 2 0
BITMAP
C0C0
C1C0
C3C0
C3C0
C7C0
CEC0
CCC0
DCC0
D8C0
F0C0
F0C0
E0C0
C0C0
ENDCHAR
STARTCHAR uni0439
ENCODING 1081
SWIDTH 602 0
DWIDTH 14 0
BBX 10 19 2 0
BITMAP
6180
6180
3F00
1E00
0000
0000
C0C0
C1C0
C3C0
C3C0
C7C0
CEC0
CCC0
DCC0
D8C0
F0C0
F0C0
E0C0
C0C0
ENDCHAR
STARTCHAR uni043A
ENCODING 1082
SWIDTH 602 0
DWIDTH 14 0
BBX 9 13 3 0
BITMAP
C300
C700
C600
CE00
CC00
F800
FC00
CE00
C600
C600
C300
C300
C180
ENDCHAR
STARTCHAR uni043B
ENCODING 1083
SWIDTH 602 0
DWIDTH 14 0
BBX 11 13 0 0
BITMAP
1FE0
1FE0
1860
1860
1860
1860
1860
3860
3060
3060
7060
E060
C060
ENDCHAR
STARTCHAR uni043C
ENCODING 1084
SWIDTH 602 0
DWIDTH 14 0
BBX 11 13 1 0
BITMAP
E0E0
E0E0
E0E0
F0E0
F160
D160
D960
DB60
DA60
CE60
CE60
CC60
C060
ENDCHAR
STARTCHAR uni043D
ENCODING 1085
SWIDTH 602 0
DWIDTH 14 0
BBX 10 13 2 0
BITMAP
C0C0
C0C0
C0C0
C0C0
C0C0
FFC0
FFC0
C0C0
C0C0
C0C0
C0C0
C0C0
C0C0
ENDCHAR
STARTCHAR uni043E
ENCODING 1086
SWIDTH 602 0
DWIDTH 14 0
BBX 12 13 1 0
BITMAP
1F80
3FC0
70E0
E060
C030
C030
C030
C030
C030
E070
70E0
3FC0
1F80
ENDCHAR
STARTCHAR uni043F
ENCODING 1087
SWIDTH 602 0
DWIDTH 14 0
BBX 10 13 2 0
BITMAP
FFC0
FFC0
C0C0
C0C0
C0C0
C0C0
C0C0
C0C0
C0C0
C0C0
C0C0
C0C0
C0C0
ENDCHAR
STARTCHAR uni0440
ENCODING 1088
SWIDTH 602 0
DWIDTH 14 0
BBX 11 18 2 -5
BITMAP
CF00
DFC0
F0C0
E0E0
C060
C060
C060
C060
C060
C0C0
F1C0
FF80
DF00
C000
C000
C000
C000
C000
ENDCHAR
STARTCHAR uni0441
ENCODING 1089
SWIDTH 602 0
DWIDTH 14 0
BBX 11 13 2 0
BITMAP
0FC0
3FE0
7020
6000
C000
C000
C000
C000
C000
6000
7020
3FE0
0FC0
ENDCHAR
STARTCHAR uni0442
ENCODING 1090
SWIDTH 602 0
DWIDTH 14 0
BBX 12 13 1 0
BITMAP
FFF0
FFF0
0600
0600
0600
0600
0600
0600
0600
0600
0600
0600
0600
ENDCHAR
STARTCHAR uni0443
ENCODING 1091
SWIDTH 602 0
DWIDTH 14 0
BBX 12 18 1 -5
BITMAP
C030
6060
6060
7060
30C0
30C0
1980
1980
1D80
0F00
0F00
0600
0600
0600
0C00
1C00
7800
7000
ENDCHAR
STARTCHAR uni0444
ENCODING 1092
SWIDTH 602 0
DWIDTH 14 0
BBX 13 22 0 -5
BITMAP
0600
0600
0600
0600
3EE0
7FF0
6630
C618
C618
C618
C618
C618
C618
C618
E630
7FF0
3EE0
0600
0600
0600
0600
0600
ENDCHAR
STARTCHAR uni0445
ENCODING 1093
SWIDTH 602 0
DWIDTH 14 0
BBX 12 13 1 0
BITMAP
E060
70C0
30C0
1980
1F00
0F00
0E00
0F00
1B80
3980
30C0
60E0
E070
ENDCHAR
STARTCHAR uni0446
ENCODING 1094
SWIDTH 602 0
DWIDTH 14 0
BBX 11 16 2 -3
BITMAP
C180
C180
C180
C180
C180
C180
C180
C180
C180
C180
C180
FFE0
FFE0
0060
0060
0060
ENDCHAR
STARTCHAR uni0447
ENCODING 1095
SWIDTH 602 0
DWIDTH 14 0
BBX 10 13 1 0
BITMAP
C0C0
C0C0
C0C0
C0C0
C0C0
E1C0
7FC0
3EC0
00C0
00C0
00C0
00C0
00C0
ENDCHAR
STARTCHAR uni0448
ENCODING 1096
SWIDTH 602 0
DWIDTH 14 0
BBX 12 13 1 0
BITMAP
C630
C630
C630
C630
C630
C630
C630
C630
C630
C630
C630
FFF0
FFF0
ENDCHAR
STARTCHAR uni0449
ENCODING 1097
SWIDTH 602 0
DWIDTH 14 0
BBX 13 16 1 -3
BITMAP
C630
C630
C630
C630
C630
C630
C630
C630
C630
C630
C630
FFF8
FFF8
0018
0018
0018
ENDCHAR
STARTCHAR uni044A
ENCODING 1098
SWIDTH 602 0
DWIDTH 14 0
BBX 12 13 1 0
BITMAP
F800
F800
1800
1800
1800
1FC0
1FE0
1870
1830
1830
1870
1FE0
1FC0
ENDCHAR
STARTCHAR uni044B
ENCODING 1099
SWIDTH 602 0
DWIDTH 14 0
BBX 12 13 1 0
BITMAP
C030
C030
C030
C030
C030
FC30
FE30
C730
C330
C330
C730
FE30
FC30
ENDCHAR
STARTCHAR uni044C
ENCODING 1100
SWIDTH 602 0
DWIDTH 14 0
BBX 9 13 3 0
BITMAP
C000
C000
C000
C000
C000
FE00
FF00
C380
C180
C180
C380
FF00
FE00
ENDCHAR
STARTCHAR uni044D
ENCODING 1101
SWIDTH 602 0
DWIDTH 14 0
BBX 11 13 2 0
BITMAP
7F00
FF80
81C0
0060
0060
1FE0
1FE0
0060
0060
00C0
81C0
FF80
7E00
ENDCHAR
STARTCHAR uni044E
ENCODING 1102
SWIDTH 602 0
DWIDTH 14 0
BBX 13 13 1 0
BITMAP
C3E0
C7F0
C630
CC18
CC18
FC18
FC18
CC18
CC18
CC18
C630
C7F0
C3E0
ENDCHAR
STARTCHAR uni044F
ENCODING 1103
SWIDTH 602 0
DWIDTH 14 0
BBX 10 13 1 0
BITMAP
1FC0
3FC0
70C0
60C0
60C0
70C0
3FC0
1FC0
38C0
30C0
70C0
60C0
E0C0
ENDCHAR
STARTCHAR uni0451
ENCODING 1105
SWIDTH 602 0
DWIDTH 14 0
BBX 11 17 1 0
BITMAP
18C0
18C0
0000
0000
1F00
3FC0
70C0
6060
C060
FFE0
FFE0
C000
C000
E000
7020
3FE0
0FC0
ENDCHAR
STARTCHAR uni0452
ENCODING 1106
SWIDTH 602 0
DWIDTH 14 0
BBX 12 24 0 -5
BITMAP
3000
3000
3000
FF00
3000
3000
33C0
37E0
3C70
3830
3030
3030
3030
3030
3030
3030
3030
3030
3030
0030
0030
0030
01E0
01C0
ENDCHAR
STARTCHAR uni0453
ENCODING 1107
SWIDTH 602 0
DWIDTH 14 0
BBX 10 19 3 0
BITMAP
0380
0600
0C00
1800
0000
0000
FFC0
FFC0
C000
C000
C000
C000
C000
C000
C000
C000
C000
C000
C000
ENDCHAR
STARTCHAR uni0454
ENCODING 1108
SWIDTH 602 0
DWIDTH 14 0
BBX 10 13 2 0
BITMAP
1FC0
3FC0
7040
E000
C000
FE00
FE00
C000
C000
E000
7040
3FC0
1F80
ENDCHAR
STARTCHAR uni0455
ENCODING 1109
SWIDTH 602 0
DWIDTH 14 0
BBX 10 13 2 0
BITMAP
3F00
7F80
E080
C000
E000
7C00
3F00
07C0
00C0
00C0
C1C0
FF80
7E00
ENDCHAR
STARTCHAR uni0456
ENCODING 1110
SWIDTH 602 0
DWIDTH 14 0
BBX 7 19 2 0
BITMAP
0E
0E
0E
00
00
00
FE
FE
06
06
06
06
06
06
06
06
06
06
06
ENDCHAR
STARTCHAR uni0457
ENCODING 1111
SWIDTH 602 0
DWIDTH 14 0
BBX 8 17 2 0
BITMAP
63
63
00
00
FE
FE
06
06
06
06
06
06
06
06
06
06
06
ENDCHAR
STARTCHAR uni0458
ENCODING 1112
SWIDTH 602 0
DWIDTH 14 0
BBX 8 24 2 -5
BITMAP
07
07
07
00
00
00
7F
7F
03
03
03
03
03
03
03
03
03
03
03
03
03
87
FE
7C
ENDCHAR
STARTCHAR uni0459
ENCODING 1113
SWIDTH 602 0
DWIDTH 14 0
BBX 14 13 0 0
BITMAP
1F80
1F80
1980
1980
1980
19F0
19F8
199C
398C
318C
719C
E1F8
C1F0
ENDCHAR
STARTCHAR uni045A
ENCODING 1114
SWIDTH 602 0
DWIDTH 14 0
BBX 13 13 1 0
BITMAP
C300
C300
C300
C300
C300
FFE0
FFF0
C338
C318
C318
C338
C3F0
C3E0
ENDCHAR
STARTCHAR uni045B
ENCODING 1115
SWIDTH 602 0
DWIDTH 14 0
BBX 12 19 0 0
BITMAP
3000
3000
3000
FE00
3000
3000
33C0
37E0
3C70
3830
3030
3030
3030
3030
3030
3030
3030
3030
3030
ENDCHAR
STARTCHAR uni045C
ENCODING 1116
SWIDTH 602 0
DWIDTH 14 0
BBX 9 19 3 0
BITMAP
0700
0E00
1C00
1800
0000
0000
C300
C700
C600
CE00
CC00
F800
FC00
CE00
C600
C600
C300
C300
C180
ENDCHAR
STARTCHAR uni045E
ENCODING 1118
SWIDTH 602 0
DWIDTH 14 0
BBX 12 24 1 -5
BITMAP
3040
18C0
1F80
0F00
0000
0000
C030
6060
6060
7060
30C0
30C0
1980
1980
1D80
0F00
0F00
0600
0600
0600
0C00
1C00
7800
7000
ENDCHAR
STARTCHAR uni045F
ENCODING 1119
SWIDTH 602 0
DWIDTH 14 0
BBX 10 16 2 -3
BITMAP
C0C0
C0C0
C0C0
C0C0
C0C0
C0C0
C0C0
C0C0
C0C0
C0C0
C0C0
FFC0
FFC0
0C00
0C00
0C00
ENDCHAR
STARTCHAR uni0490
ENCODING 1168
SWIDTH 602 0
DWIDTH 14 0
BBX 10 18 3 0
BITMAP
00C0
00C0
00C0
FFC0
FFC0
C000
C000
C000
C000
C000
C000
C000
C000
C000
C000
C000
C000
C000
ENDCHAR
STARTCHAR uni0491
ENCODING 1169
SWIDTH 602 0
DWIDTH 14 0
BBX 10 16 3 0
BITMAP
00C0
00C0
00C0
FFC0
FFC0
C000
C000
C000
C000
C000
C000
C000
C000
C000
C000
C000
ENDCHAR
STARTCHAR Wgrave
ENCODING 7808
SWIDTH 602 0
DWIDTH 14 0
BBX 14 19 0 0
BITMAP
0C00
0600
0300
0000
C00C
C00C
C00C
4308
6388
6398
6798
6798
6498
64D0
34D0
34D0
38F0
3870
3870
ENDCHAR
STARTCHAR wgrave
ENCODING 7809
SWIDTH 602 0
DWIDTH 14 0
BBX 14 19 0 0
BITMAP
0C00
0600
0300
0180
0000
0000
C00C
C30C
E38C
6788
6798
6498
6498
6CD8
7CD0
38D0
3870
3870
3870
ENDCHAR
STARTCHAR Wacute
ENCODING 7810
SWIDTH 602 0
DWIDTH 14 0
BBX 14 19 0 0
BITMAP
01C0
0300
0600
0000
C00C
C00C
C00C
4308
6388
6398
6798
6798
6498
64D0
34D0
34D0
38F0
3870
3870
ENDCHAR
STARTCHAR wacute
ENCODING 7811
SWIDTH 602 0
DWIDTH 14 0
BBX 14 19 0 0
BITMAP
00E0
01C0
0380
0300
0000
0000
C00C
C30C
E38C
6788
6798
6498
6498
6CD8
7CD0
38D0
3870
3870
3870
ENDCHAR
STARTCHAR Wdieresis
ENCODING 7812
SWIDTH 602 0
DWIDTH 14 0
BBX 14 19 0 0
BITMAP
1860
1860
0000
0000
C00C
C00C
C00C
4308
6388
6398
6798
6798
6498
64D0
34D0
34D0
38F0
3870
3870
ENDCHAR
STARTCHAR wdieresis
ENCODING 7813
SWIDTH 602 0
DWIDTH 14 0
BBX 14 17 0 0
BITMAP
18C0
18C0
0000
0000
C00C
C30C
E38C
6788
6798
6498
6498
6CD8
7CD0
38D0
3870
3870
3870
ENDCHAR
STARTCHAR Ygrave
ENCODING 7922
SWIDTH 602 0
DWIDTH 14 0
BBX 14 19 0 0
BITMAP
0C00
0600
0300
0000
E01C
7018
3030
3870
1C60
0CC0
0FC0
0780
0300
0300
0300
0300
0300
0300
0300
ENDCHAR
STARTCHAR ygrave
ENCODING 7923
SWIDTH 602 0
DWIDTH 14 0
BBX 12 24 1 -5
BITMAP
1C00
0C00
0600
0300
0000
0000
C030
6060
6060
7060
30C0
30C0
1980
1980
1D80
0F00
0F00
0600
0600
0600
0C00
1C00
7800
7000
ENDCHAR
STARTCHAR endash
ENCODING 8211
SWIDTH 602 0
DWIDTH 14 0
BBX 10 1 2 6
BITMAP
FFC0
ENDCHAR
STARTCHAR emdash
ENCODING 8212
SWIDTH 602 0
DWIDTH 14 0
BBX 12 1 1 6
BITMAP
FFF0
ENDCHAR
STARTCHAR uni2015
ENCODING 8213
SWIDTH 602 0
DWIDTH 14 0
BBX 12 1 1 6
BITMAP
FFF0
ENDCHAR
STARTCHAR underscoredbl
ENCODING 8215
SWIDTH 602 0
DWIDTH 14 0
BBX 14 6 0 -6
BITMAP
FFFC
FFFC
0000
0000
FFFC
FFFC
ENDCHAR
STARTCHAR quoteleft
ENCODING 8216
SWIDTH 602 0
DWIDTH 14 0
BBX 3 7 6 12
BITMAP
20
40
C0
C0
E0
E0
E0
ENDCHAR
STARTCHAR quoteright
ENCODING 8217
SWIDTH 602 0
DWIDTH 14 0
BBX 3 7 6 12
BITMAP
E0
E0
E0
60
60
40
C0
ENDCHAR
STARTCHAR quotesinglbase
ENCODING 8218
SWIDTH 602 0
DWIDTH 14 0
BBX 3 7 6 -4
BITMAP
E0
E0
E0
60
60
40
C0
ENDCHAR
STARTCHAR quotedblleft
ENCODING 8220
SWIDTH 602 0
DWIDTH 14 0
BBX 9 6 3 13
BITMAP
6180
C300
C300
E380
E380
E380
ENDCHAR
STARTCHAR quotedblright
ENCODING 8221
SWIDTH 602 0
DWIDTH 14 0
BBX 9 6 3 13
BITMAP
E380
E380
E380
6180
6180
C300
ENDCHAR
STARTCHAR quotedblbase
ENCODING 8222
SWIDTH 602 0
DWIDTH 14 0
BBX 9 6 3 -3
BITMAP
E380
E380
E380
6180
6180
C300
ENDCHAR
STARTCHAR dagger
ENCODING 8224
SWIDTH 602 0
DWIDTH 14 0
BBX 10 20 2 -3
BITMAP
0C00
0C00
0C00
0C00
0C00
FFC0
FFC0
0C00
0C00
0C00
0C00
0C00
0C00
0C00
0C00
0C00
0C00
0C00
0C00
0C00
ENDCHAR
STARTCHAR daggerdbl
ENCODING 8225
SWIDTH 602 0
DWIDTH 14 0
BBX 10 20 2 -3
BITMAP
0C00
0C00
0C00
0C00
0C00
FFC0
FFC0
0C00
0C00
0C00
0C00
0C00
FFC0
FFC0
0C00
0C00
0C00
0C00
0C00
0C00
ENDCHAR
STARTCHAR bullet
ENCODING 8226
SWIDTH 602 0
DWIDTH 14 0
BBX 7 7 4 3
BITMAP
38
7C
FE
FE
FE
7C
38
ENDCHAR
STARTCHAR ellipsis
ENCODING 8230
SWIDTH 602 0
DWIDTH 14 0
BBX 12 2 1 0
BITMAP
C630
C630
ENDCHAR
STARTCHAR perthousand
ENCODING 8240
SWIDTH 602 0
DWIDTH 14 0
BBX 14 17 0 0
BITMAP
6080
9100
9100
9200
9200
9400
9400
6800
0800
0B18
14A4
14A4
24A4
24A4
44A4
44A4
8318
ENDCHAR
STARTCHAR guilsinglleft
ENCODING 8249
SWIDTH 602 0
DWIDTH 14 0
BBX 6 11 4 1
BITMAP
04
0C
18
30
60
C0
60
30
18
0C
04
ENDCHAR
STARTCHAR guilsinglright
ENCODING 8250
SWIDTH 602 0
DWIDTH 14 0
BBX 6 11 4 1
BITMAP
80
C0
60
30
18
0C
18
30
60
C0
80
ENDCHAR
STARTCHAR exclamdbl
ENCODING 8252
SWIDTH 602 0
DWIDTH 14 0
BBX 7 17 3 0
BITMAP
C6
C6
C6
C6
C6
C6
C6
C6
C6
C6
C6
C6
00
00
C6
C6
C6
ENDCHAR
STARTCHAR uni203E
ENCODING 8254
SWIDTH 602 0
DWIDTH 14 0
BBX 14 1 0 18
BITMAP
FFFC
ENDCHAR
STARTCHAR fraction
ENCODING 8260
SWIDTH 602 0
DWIDTH 14 0
BBX 14 17 0 0
BITMAP
000C
0018
0030
0030
0060
00C0
0180
0180
0300
0600
0600
0C00
1800
3000
3000
6000
C000
ENDCHAR
STARTCHAR uni207F
ENCODING 8319
SWIDTH 602 0
DWIDTH 14 0
BBX 8 9 3 8
BITMAP
DE
FF
E3
C3
C3
C3
C3
C3
C3
ENDCHAR
STARTCHAR franc
ENCODING 8355
SWIDTH 602 0
DWIDTH 14 0
BBX 13 17 0 0
BITMAP
1FF8
1FF8
1800
1800
1800
1800
1800
1800
1FF0
1FF0
1800
1800
FF00
FF00
1800
1800
1800
ENDCHAR
STARTCHAR lira
ENCODING 8356
SWIDTH 602 0
DWIDTH 14 0
BBX 9 17 3 0
BITMAP
0F80
1F80
1800
3000
3000
3000
3000
FC00
3000
3000
FC00
3000
3000
2000
6000
FF80
FF80
ENDCHAR
STARTCHAR peseta
ENCODING 8359
SWIDTH 602 0
DWIDTH 14 0
BBX 14 17 0 0
BITMAP
FC00
FE00
C700
C300
C300
C700
FE00
F800
C31C
C320
C320
CFF0
C318
C31C
C30C
C30C
C1B8
ENDCHAR
STARTCHAR Euro
ENCODING 8364
SWIDTH 603 0
DWIDTH 14 0
BBX 12 17 1 0
BITMAP
07C0
0FE0
1C30
3010
3000
6000
FFC0
FFC0
6000
FF80
FF80
6000
3000
3800
1C10
0FF0
07E0
ENDCHAR
STARTCHAR uni2116
ENCODING 8470
SWIDTH 602 0
DWIDTH 14 0
BBX 13 17 1 0
BITMAP
8400
C400
C400
C400
E470
E4D8
A4D8
A4D8
B4D8
94D8
94D8
9CD8
9C70
8C00
8C00
8CF8
84F8
ENDCHAR
STARTCHAR trademark
ENCODING 8482
SWIDTH 602 0
DWIDTH 14 0
BBX 13 8 1 9
BITMAP
FF18
FF38
33B8
33B8
33D8
32D8
32D8
3218
ENDCHAR
STARTCHAR Omega
ENCODING 8486
SWIDTH 602 0
DWIDTH 14 0
BBX 13 17 1 0
BITMAP
0F80
3FE0
7070
6030
E038
C018
C018
C018
C018
C018
4010
6030
2020
3060
18C0
FDF8
FDF8
ENDCHAR
STARTCHAR oneeighth
ENCODING 8539
SWIDTH 602 0
DWIDTH 14 0
BBX 14 17 0 0
BITMAP
F060
F0C0
30C0
3180
3180
3300
3300
3600
0EF8
0D8C
198C
19F8
30F8
31DC
618C
618C
C0F8
ENDCHAR
STARTCHAR threeeighths
ENCODING 8540
SWIDTH 602 0
DWIDTH 14 0
BBX 14 17 0 0
BITMAP
F830
0C60
0C60
70C0
1CC0
0D80
0D80
FB00
07F8
078C
0D8C
0DF8
18F8
19DC
318C
318C
60F8
ENDCHAR
STARTCHAR fiveeighths
ENCODING 8541
SWIDTH 602 0
DWIDTH 14 0
BBX 14 17 0 0
BITMAP
FC30
C060
C060
F8C0
1CC0
0D80
0D80
FB00
07F8
078C
0D8C
0DF8
18F8
19DC
318C
318C
60F8
ENDCHAR
STARTCHAR seveneighths
ENCODING 8542
SWIDTH 602 0
DWIDTH 14 0
BBX 14 17 0 0
BITMAP
FC60
FCC0
08C0
1980
1180
3300
2300
6600
0EF8
0D8C
198C
19F8
30F8
31DC
618C
618C
C0F8
ENDCHAR
STARTCHAR arrowleft
ENCODING 8592
SWIDTH 602 0
DWIDTH 14 0
BBX 12 8 1 3
BITMAP
0800
1800
3000
FFF0
FFF0
3000
1800
0800
ENDCHAR
STARTCHAR arrowup
ENCODING 8593
SWIDTH 602 0
DWIDTH 14 0
BBX 8 20 3 -3
BITMAP
18
38
7E
DB
18
18
18
18
18
18
18
18
18
18
18
18
18
18
18
18
ENDCHAR
STARTCHAR arrowright
ENCODING 8594
SWIDTH 602 0
DWIDTH 14 0
BBX 12 8 1 3
BITMAP
0100
0180
00C0
FFF0
FFF0
00C0
0180
0100
ENDCHAR
STARTCHAR arrowdown
ENCODING 8595
SWIDTH 602 0
DWIDTH 14 0
BBX 8 20 3 -3
BITMAP
18
18
18
18
18
18
18
18
18
18
18
18
18
18
18
18
DB
7E
18
18
ENDCHAR
STARTCHAR arrowboth
ENCODING 8596
SWIDTH 602 0
DWIDTH 14 0
BBX 12 8 1 3
BITMAP
0900
1080
30C0
FFF0
FFF0
30C0
1080
0900
ENDCHAR
STARTCHAR arrowupdn
ENCODING 8597
SWIDTH 602 0
DWIDTH 14 0
BBX 8 20 3 -3
BITMAP
18
38
7E
DB
18
18
18
18
18
18
18
18
18
18
18
18
DB
7E
18
18
ENDCHAR
STARTCHAR arrowupdnbse
ENCODING 8616
SWIDTH 602 0
DWIDTH 14 0
BBX 8 24 3 -5
BITMAP
18
18
7E
DB
18
18
18
18
18
18
18
18
18
18
18
18
18
DB
7E
18
18
00
FF
FF
ENDCHAR
STARTCHAR partialdiff
ENCODING 8706
SWIDTH 602 0
DWIDTH 14 0
BBX 11 19 2 0
BITMAP
0F00
3F80
21C0
40C0
00E0
0060
0060
0760
1FE0
38E0
7060
6060
C040
C0C0
C0C0
C180
E380
7F00
3C00
ENDCHAR
STARTCHAR Delta
ENCODING 8710
SWIDTH 602 0
DWIDTH 14 0
BBX 14 17 0 0
BITMAP
0300
0780
0780
0DC0
0DC0
0CC0
18E0
1860
1860
3070
3030
6038
6018
6018
C01C
FFFC
FFFC
ENDCHAR
STARTCHAR product
ENCODING 8719
SWIDTH 602 0
DWIDTH 14 0
BBX 12 17 1 0
BITMAP
FFF0
FFF0
6060
6060
6060
6060
6060
6060
6060
6060
6060
6060
6060
6060
6060
6060
6060
ENDCHAR
STARTCHAR summation
ENCODING 8721
SWIDTH 602 0
DWIDTH 14 0
BBX 13 17 1 0
BITMAP
7FF0
7FF0
7000
3800
1C00
0C00
0600
0700
0380
0300
0600
0C00
1800
3000
6000
FFF8
FFF8
ENDCHAR
STARTCHAR minus
ENCODING 8722
SWIDTH 602 0
DWIDTH 14 0
BBX 12 2 1 5
BITMAP
FFF0
FFF0
ENDCHAR
STARTCHAR uni2219
ENCODING 8729
SWIDTH 602 0
DWIDTH 14 0
BBX 7 7 4 3
BITMAP
38
7C
FE
FE
FE
7C
38
ENDCHAR
STARTCHAR radical
ENCODING 8730
SWIDTH 602 0
DWIDTH 14 0
BBX 14 22 0 -3
BITMAP
000C
000C
0018
0018
0018
0010
0030
0030
0020
0060
0060
0060
30C0
F0C0
10C0
1880
1980
0D80
0D00
0700
0700
0300
ENDCHAR
STARTCHAR infinity
ENCODING 8734
SWIDTH 602 0
DWIDTH 14 0
BBX 14 10 0 1
BITMAP
3870
7CF8
EEDC
C78C
C30C
C30C
C78C
EDDC
7CF8
3870
ENDCHAR
STARTCHAR orthogonal
ENCODING 8735
SWIDTH 602 0
DWIDTH 14 0
BBX 12 13 1 0
BITMAP
C000
C000
C000
C000
C000
C000
C000
C000
C000
C000
C000
FFF0
FFF0
ENDCHAR
STARTCHAR intersection
ENCODING 8745
SWIDTH 602 0
DWIDTH 14 0
BBX 13 13 1 0
BITMAP
0F80
3FE0
70F0
6030
C018
C018
C018
C018
C018
C018
C018
C018
C018
ENDCHAR
STARTCHAR integral
ENCODING 8747
SWIDTH 602 0
DWIDTH 14 0
BBX 8 20 3 -3
BITMAP
07
0F
0B
18
18
18
18
18
18
18
18
18
18
18
18
18
18
D0
F0
E0
ENDCHAR
STARTCHAR approxequal
ENCODING 8776
SWIDTH 602 0
DWIDTH 14 0
BBX 12 9 1 2
BITMAP
7830
7E30
C7E0
C1C0
0000
7830
7E30
C7E0
C1C0
ENDCHAR
STARTCHAR notequal
ENCODING 8800
SWIDTH 602 0
DWIDTH 14 0
BBX 12 10 1 1
BITMAP
0080
0180
FFF0
FFF0
0200
0600
FFF0
FFF0
0800
1800
ENDCHAR
STARTCHAR equivalence
ENCODING 8801
SWIDTH 602 0
DWIDTH 14 0
BBX 12 10 1 1
BITMAP
FFF0
FFF0
0000
0000
FFF0
FFF0
0000
0000
FFF0
FFF0
ENDCHAR
STARTCHAR lessequal
ENCODING 8804
SWIDTH 602 0
DWIDTH 14 0
BBX 12 16 1 -2
BITMAP
0010
0070
01E0
0780
1E00
7800
F800
1E00
0780
01E0
0070
0010
0000
0000
FFF0
FFF0
ENDCHAR
STARTCHAR greaterequal
ENCODING 8805
SWIDTH 602 0
DWIDTH 14 0
BBX 12 16 1 -2
BITMAP
8000
E000
7800
1E00
0780
01E0
01F0
0780
1E00
7800
E000
8000
0000
0000
FFF0
FFF0
ENDCHAR
STARTCHAR house
ENCODING 8962
SWIDTH 602 0
DWIDTH 14 0
BBX 11 14 2 0
BITMAP
0400
0E00
1F00
3B80
71C0
E0E0
C060
C060
C060
C060
C060
C060
FFE0
FFE0
ENDCHAR
STARTCHAR revlogicalnot
ENCODING 8976
SWIDTH 602 0
DWIDTH 14 0
BBX 12 6 1 3
BITMAP
FFF0
FFF0
C000
C000
C000
C000
ENDCHAR
STARTCHAR integraltp
ENCODING 8992
SWIDTH 602 0
DWIDTH 14 0
BBX 6 24 6 -5
BITMAP
1C
2C
4C
40
C0
C0
C0
C0
C0
C0
C0
C0
C0
C0
C0
C0
C0
C0
C0
C0
C0
C0
C0
C0
ENDCHAR
STARTCHAR integralbt
ENCODING 8993
SWIDTH 602 0
DWIDTH 14 0
BBX 6 24 2 -5
BITMAP
0C
0C
0C
0C
0C
0C
0C
0C
0C
0C
0C
0C
0C
0C
0C
0C
0C
0C
0C
08
08
C8
D0
E0
ENDCHAR
STARTCHAR SF100000
ENCODING 9472
SWIDTH 602 0
DWIDTH 14 0
BBX 14 2 0 6
BITMAP
FFFC
FFFC
ENDCHAR
STARTCHAR SF110000
ENCODING 9474
SWIDTH 602 0
DWIDTH 14 0
BBX 2 24 6 -5
BITMAP
C0
C0
C0
C0
C0
C0
C0
C0
C0
C0
C0
C0
C0
C0
C0
C0
C0
C0
C0
C0
C0
C0
C0
C0
ENDCHAR
STARTCHAR SF010000
ENCODING 9484
SWIDTH 602 0
DWIDTH 14 0
BBX 8 13 6 -5
BITMAP
FF
FF
C0
C0
C0
C0
C0
C0
C0
C0
C0
C0
C0
ENDCHAR
STARTCHAR SF030000
ENCODING 9488
SWIDTH 602 0
DWIDTH 14 0
BBX 8 13 0 -5
BITMAP
FF
FF
03
03
03
03
03
03
03
03
03
03
03
ENDCHAR
STARTCHAR SF020000
ENCODING 9492
SWIDTH 602 0
DWIDTH 14 0
BBX 8 13 6 6
BITMAP
C0
C0
C0
C0
C0
C0
C0
C0
C0
C0
C0
FF
FF
ENDCHAR
STARTCHAR SF040000
ENCODING 9496
SWIDTH 602 0
DWIDTH 14 0
BBX 8 13 0 6
BITMAP
03
03
03
03
03
03
03
03
03
03
03
FF
FF
ENDCHAR
STARTCHAR SF080000
ENCODING 9500
SWIDTH 602 0
DWIDTH 14 0
BBX 8 24 6 -5
BITMAP
C0
C0
C0
C0
C0
C0
C0
C0
C0
C0
C0
FF
FF
C0
C0
C0
C0
C0
C0
C0
C0
C0
C0
C0
ENDCHAR
STARTCHAR SF090000
ENCODING 9508
SWIDTH 602 0
DWIDTH 14 0
BBX 8 24 0 -5
BITMAP
03
03
03
03
03
03
03
03
03
03
03
FF
FF
03
03
03
03
03
03
03
03
03
03
03
ENDCHAR
STARTCHAR SF060000
ENCODING 9516
SWIDTH 602 0
DWIDTH 14 0
BBX 14 13 0 -5
BITMAP
FFFC
FFFC
0300
0300
0300
0300
0300
0300
0300
0300
0300
0300
0300
ENDCHAR
STARTCHAR SF070000
ENCODING 9524
SWIDTH 602 0
DWIDTH 14 0
BBX 14 13 0 6
BITMAP
0300
0300
0300
0300
0300
0300
0300
0300
0300
0300
0300
FFFC
FFFC
ENDCHAR
STARTCHAR SF050000
ENCODING 9532
SWIDTH 602 0
DWIDTH 14 0
BBX 14 24 0 -5
BITMAP
0300
0300
0300
0300
0300
0300
0300
0300
0300
0300
0300
FFFC
FFFC
0300
0300
0300
0300
0300
0300
0300
0300
0300
0300
0300
ENDCHAR
STARTCHAR SF430000
ENCODING 9552
SWIDTH 602 0
DWIDTH 14 0
BBX 14 6 0 4
BITMAP
FFFC
FFFC
0000
0000
FFFC
FFFC
ENDCHAR
STARTCHAR SF240000
ENCODING 9553
SWIDTH 602 0
DWIDTH 14 0
BBX 6 24 5 -5
BITMAP
CC
CC
CC
CC
CC
CC
CC
CC
CC
CC
CC
CC
CC
CC
CC
CC
CC
CC
CC
CC
CC
CC
CC
CC
ENDCHAR
STARTCHAR SF510000
ENCODING 9554
SWIDTH 602 0
DWIDTH 14 0
BBX 8 15 6 -5
BITMAP
FF
FF
C0
C0
FF
FF
C0
C0
C0
C0
C0
C0
C0
C0
C0
ENDCHAR
STARTCHAR SF520000
ENCODING 9555
SWIDTH 602 0
DWIDTH 14 0
BBX 9 13 5 -5
BITMAP
FF80
FF80
CC00
CC00
CC00
CC00
CC00
CC00
CC00
CC00
CC00
CC00
CC00
ENDCHAR
STARTCHAR SF390000
ENCODING 9556
SWIDTH 602 0
DWIDTH 14 0
BBX 9 15 5 -5
BITMAP
FF80
FF80
C000
C000
CF80
CF80
CC00
CC00
CC00
CC00
CC00
CC00
CC00
CC00
CC00
ENDCHAR
STARTCHAR SF220000
ENCODING 9557
SWIDTH 602 0
DWIDTH 14 0
BBX 8 15 0 -5
BITMAP
FF
FF
03
03
FF
FF
03
03
03
03
03
03
03
03
03
ENDCHAR
STARTCHAR SF210000
ENCODING 9558
SWIDTH 602 0
DWIDTH 14 0
BBX 11 13 0 -5
BITMAP
FFE0
FFE0
0660
0660
0660
0660
0660
0660
0660
0660
0660
0660
0660
ENDCHAR
STARTCHAR SF250000
ENCODING 9559
SWIDTH 602 0
DWIDTH 14 0
BBX 11 15 0 -5
BITMAP
FFE0
FFE0
0060
0060
FE60
FE60
0660
0660
0660
0660
0660
0660
0660
0660
0660
ENDCHAR
STARTCHAR SF500000
ENCODING 9560
SWIDTH 602 0
DWIDTH 14 0
BBX 8 15 6 4
BITMAP
C0
C0
C0
C0
C0
C0
C0
C0
C0
FF
FF
C0
C0
FF
FF
ENDCHAR
STARTCHAR SF490000
ENCODING 9561
SWIDTH 602 0
DWIDTH 14 0
BBX 9 13 5 6
BITMAP
CC00
CC00
CC00
CC00
CC00
CC00
CC00
CC00
CC00
CC00
CC00
FF80
FF80
ENDCHAR
STARTCHAR SF380000
ENCODING 9562
SWIDTH 602 0
DWIDTH 14 0
BBX 9 15 5 4
BITMAP
CC00
CC00
CC00
CC00
CC00
CC00
CC00
CC00
CC00
CF80
CF80
C000
C000
FF80
FF80
ENDCHAR
STARTCHAR SF280000
ENCODING 9563
SWIDTH 602 0
DWIDTH 14 0
BBX 8 15 0 4
BITMAP
03
03
03
03
03
03
03
03
03
FF
FF
03
03
FF
FF
ENDCHAR
STARTCHAR SF270000
ENCODING 9564
SWIDTH 602 0
DWIDTH 14 0
BBX 11 13 0 6
BITMAP
0660
0660
0660
0660
0660
0660
0660
0660
0660
0660
0660
FFE0
FFE0
ENDCHAR
STARTCHAR SF260000
ENCODING 9565
SWIDTH 602 0
DWIDTH 14 0
BBX 11 15 0 4
BITMAP
0660
0660
0660
0660
0660
0660
0660
0660
0660
FE60
FE60
0060
0060
FFE0
FFE0
ENDCHAR
STARTCHAR SF360000
ENCODING 9566
SWIDTH 602 0
DWIDTH 14 0
BBX 8 24 6 -5
BITMAP
C0
C0
C0
C0
C0
C0
C0
C0
C0
FF
FF
C0
C0
FF
FF
C0
C0
C0
C0
C0
C0
C0
C0
C0
ENDCHAR
STARTCHAR SF370000
ENCODING 9567
SWIDTH 602 0
DWIDTH 14 0
BBX 9 24 5 -5
BITMAP
CC00
CC00
CC00
CC00
CC00
CC00
CC00
CC00
CC00
CC00
CC00
CF80
CF80
CC00
CC00
CC00
CC00
CC00
CC00
CC00
CC00
CC00
CC00
CC00
ENDCHAR
STARTCHAR SF420000
ENCODING 9568
SWIDTH 602 0
DWIDTH 14 0
BBX 9 24 5 -5
BITMAP
CC00
CC00
CC00
CC00
CC00
CC00
CC00
CC00
CC00
CF80
CF80
C000
C000
CF80
CF80
CC00
CC00
CC00
CC00
CC00
CC00
CC00
CC00
CC00
ENDCHAR
STARTCHAR SF190000
ENCODING 9569
SWIDTH 602 0
DWIDTH 14 0
BBX 8 24 0 -5
BITMAP
03
03
03
03
03
03
03
03
03
FF
FF
03
03
FF
FF
03
03
03
03
03
03
03
03
03
ENDCHAR
STARTCHAR SF200000
ENCODING 9570
SWIDTH 602 0
DWIDTH 14 0
BBX 11 24 0 -5
BITMAP
0660
0660
0660
0660
0660
0660
0660
0660
0660
0660
0660
FE60
FE60
0660
0660
0660
0660
0660
0660
0660
0660
0660
0660
0660
ENDCHAR
STARTCHAR SF230000
ENCODING 9571
SWIDTH 602 0
DWIDTH 14 0
BBX 11 24 0 -5
BITMAP
0660
0660
0660
0660
0660
0660
0660
0660
0660
FE60
FE60
0060
0060
FE60
FE60
0660
0660
0660
0660
0660
0660
0660
0660
0660
ENDCHAR
STARTCHAR SF470000
ENCODING 9572
SWIDTH 602 0
DWIDTH 14 0
BBX 14 15 0 -5
BITMAP
FFFC
FFFC
0000
0000
FFFC
FFFC
0300
0300
0300
0300
0300
0300
0300
0300
0300
ENDCHAR
STARTCHAR SF480000
ENCODING 9573
SWIDTH 602 0
DWIDTH 14 0
BBX 14 13 0 -5
BITMAP
FFFC
FFFC
0660
0660
0660
0660
0660
0660
0660
0660
0660
0660
0660
ENDCHAR
STARTCHAR SF410000
ENCODING 9574
SWIDTH 602 0
DWIDTH 14 0
BBX 14 15 0 -5
BITMAP
FFFC
FFFC
0000
0000
FE7C
FE7C
0660
0660
0660
0660
0660
0660
0660
0660
0660
ENDCHAR
STARTCHAR SF450000
ENCODING 9575
SWIDTH 602 0
DWIDTH 14 0
BBX 14 15 0 4
BITMAP
0300
0300
0300
0300
0300
0300
0300
0300
0300
FFFC
FFFC
0000
0000
FFFC
FFFC
ENDCHAR
STARTCHAR SF460000
ENCODING 9576
SWIDTH 602 0
DWIDTH 14 0
BBX 14 13 0 6
BITMAP
0660
0660
0660
0660
0660
0660
0660
0660
0660
0660
0660
FFFC
FFFC
ENDCHAR
STARTCHAR SF400000
ENCODING 9577
SWIDTH 602 0
DWIDTH 14 0
BBX 14 15 0 4
BITMAP
0660
0660
0660
0660
0660
0660
0660
0660
0660
FE7C
FE7C
0000
0000
FFFC
FFFC
ENDCHAR
STARTCHAR SF540000
ENCODING 9578
SWIDTH 602 0
DWIDTH 14 0
BBX 14 24 0 -5
BITMAP
0300
0300
0300
0300
0300
0300
0300
0300
0300
FFFC
FFFC
0300
0300
FFFC
FFFC
0300
0300
0300
0300
0300
0300
0300
0300
0300
ENDCHAR
STARTCHAR SF530000
ENCODING 9579
SWIDTH 602 0
DWIDTH 14 0
BBX 14 24 0 -5
BITMAP
0660
0660
0660
0660
0660
0660
0660
0660
0660
0660
0660
FFFC
FFFC
0660
0660
0660
0660
0660
0660
0660
0660
0660
0660
0660
ENDCHAR
STARTCHAR SF440000
ENCODING 9580
SWIDTH 602 0
DWIDTH 14 0
BBX 14 24 0 -5
BITMAP
0660
0660
0660
0660
0660
0660
0660
0660
0660
FE7C
FE7C
0000
0000
FE7C
FE7C
0660
0660
0660
0660
0660
0660
0660
0660
0660
ENDCHAR
STARTCHAR upblock
ENCODING 9600
SWIDTH 602 0
DWIDTH 14 0
BBX 14 12 0 7
BITMAP
FFFC
FFFC
FFFC
FFFC
FFFC
FFFC
FFFC
FFFC
FFFC
FFFC
FFFC
FFFC
ENDCHAR
STARTCHAR dnblock
ENCODING 9604
SWIDTH 602 0
DWIDTH 14 0
BBX 14 12 0 -5
BITMAP
FFFC
FFFC
FFFC
FFFC
FFFC
FFFC
FFFC
FFFC
FFFC
FFFC
FFFC
FFFC
ENDCHAR
STARTCHAR block
ENCODING 9608
SWIDTH 602 0
DWIDTH 14 0
BBX 14 24 0 -5
BITMAP
FFFC
FFFC
FFFC
FFFC
FFFC
FFFC
FFFC
FFFC
FFFC
FFFC
FFFC
FFFC
FFFC
FFFC
FFFC
FFFC
FFFC
FFFC
FFFC
FFFC
FFFC
FFFC
FFFC
FFFC
ENDCHAR
STARTCHAR lfblock
ENCODING 9612
SWIDTH 602 0
DWIDTH 14 0
BBX 7 24 0 -5
BITMAP
FE
FE
FE
FE
FE
FE
FE
FE
FE
FE
FE
FE
FE
FE
FE
FE
FE
FE
FE
FE
FE
FE
FE
FE
ENDCHAR
STARTCHAR rtblock
ENCODING 9616
SWIDTH 602 0
DWIDTH 14 0
BBX 7 24 7 -5
BITMAP
FE
FE
FE
FE
FE
FE
FE
FE
FE
FE
FE
FE
FE
FE
FE
FE
FE
FE
FE
FE
FE
FE
FE
FE
ENDCHAR
STARTCHAR ltshade
ENCODING 9617
SWIDTH 602 0
DWIDTH 14 0
BBX 12 21 0 -2
BITMAP
C630
C630
0000
0000
0000
C630
C630
0000
0000
0000
C630
C630
0000
0000
C630
C630
0000
0000
0000
C630
C630
ENDCHAR
STARTCHAR shade
ENCODING 9618
SWIDTH 602 0
DWIDTH 14 0
BBX 14 24 0 -5
BITMAP
318C
318C
C630
C630
0000
318C
318C
C630
C630
0000
318C
318C
C630
C630
318C
318C
0000
C630
C630
318C
318C
0000
C630
C630
ENDCHAR
STARTCHAR dkshade
ENCODING 9619
SWIDTH 602 0
DWIDTH 14 0
BBX 14 24 0 -5
BITMAP
FFFC
FFFC
C630
C630
C630
FFFC
FFFC
C630
C630
C630
FFFC
FFFC
C630
C630
FFFC
FFFC
C630
C630
C630
FFFC
FFFC
C630
C630
C630
ENDCHAR
STARTCHAR filledbox
ENCODING 9632
SWIDTH 602 0
DWIDTH 14 0
BBX 12 13 1 0
BITMAP
FFF0
FFF0
FFF0
FFF0
FFF0
FFF0
FFF0
FFF0
FFF0
FFF0
FFF0
FFF0
FFF0
ENDCHAR
STARTCHAR filledrect
ENCODING 9644
SWIDTH 602 0
DWIDTH 14 0
BBX 12 4 1 7
BITMAP
FFF0
FFF0
FFF0
FFF0
ENDCHAR
STARTCHAR triagup
ENCODING 9650
SWIDTH 602 0
DWIDTH 14 0
BBX 12 14 1 0
BITMAP
0200
0200
0600
0700
0F00
0F80
1F80
1F80
1FC0
3FC0
3FE0
7FE0
7FE0
FFF0
ENDCHAR
STARTCHAR triagrt
ENCODING 9658
SWIDTH 602 0
DWIDTH 14 0
BBX 12 14 1 0
BITMAP
8000
E000
F800
FC00
FF00
FFC0
FFF0
FFC0
FF80
FE00
FC00
F000
C000
8000
ENDCHAR
STARTCHAR triagdn
ENCODING 9660
SWIDTH 602 0
DWIDTH 14 0
BBX 12 14 1 0
BITMAP
FFF0
7FE0
7FE0
3FE0
3FC0
1FC0
1F80
1F80
0F80
0F00
0700
0600
0200
0200
ENDCHAR
STARTCHAR triaglf
ENCODING 9668
SWIDTH 602 0
DWIDTH 14 0
BBX 12 14 1 0
BITMAP
0010
0070
01F0
03F0
0FF0
3FF0
FFF0
3FF0
1FF0
07F0
03F0
00F0
0030
0010
ENDCHAR
STARTCHAR lozenge
ENCODING 9674
SWIDTH 602 0
DWIDTH 14 0
BBX 14 14 0 0
BITMAP
0300
0780
0FC0
1CE0
3870
7038
E01C
E01C
7038
3870
1CE0
0FC0
0780
0300
ENDCHAR
STARTCHAR circle
ENCODING 9675
SWIDTH 602 0
DWIDTH 14 0
BBX 13 13 1 0
BITMAP
0F80
3060
6030
4010
8008
8008
8008
8008
8008
4010
6030
3060
0F80
ENDCHAR
STARTCHAR invbullet
ENCODING 9688
SWIDTH 602 0
DWIDTH 14 0
BBX 14 24 0 -5
BITMAP
FFFC
FFFC
FFFC
FFFC
FFFC
FFFC
FFFC
FFFC
FFFC
FC7C
F83C
F01C
F01C
F01C
F83C
FC7C
FFFC
FFFC
FFFC
FFFC
FFFC
FFFC
FFFC
FFFC
ENDCHAR
STARTCHAR invcircle
ENCODING 9689
SWIDTH 602 0
DWIDTH 14 0
BBX 14 24 0 -5
BITMAP
FFFC
FFFC
FFFC
FFFC
FFFC
FFFC
F87C
E79C
CFCC
DFEC
BFF4
BFF4
BFF4
BFF4
BFF4
DFEC
CFCC
E79C
F87C
FFFC
FFFC
FFFC
FFFC
FFFC
ENDCHAR
STARTCHAR smileface
ENCODING 9786
SWIDTH 602 0
DWIDTH 14 0
BBX 12 13 1 0
BITMAP
0F00
30C0
6060
59A0
9990
8010
8010
A050
9090
59A0
6F60
30C0
0F00
ENDCHAR
STARTCHAR invsmileface
ENCODING 9787
SWIDTH 602 0
DWIDTH 14 0
BBX 12 13 1 0
BITMAP
0F00
3FC0
7FE0
6660
E670
FFF0
FFF0
FFB0
EF70
6E60
70E0
3FC0
0F00
ENDCHAR
STARTCHAR sun
ENCODING 9788
SWIDTH 602 0
DWIDTH 14 0
BBX 12 13 1 1
BITMAP
0600
2640
7FE0
3FC0
39C0
F0F0
F0F0
30C0
39C0
3FC0
6F60
2640
0600
ENDCHAR
STARTCHAR female
ENCODING 9792
SWIDTH 602 0
DWIDTH 14 0
BBX 12 17 1 0
BITMAP
1F80
3FC0
70E0
E070
C030
C030
C030
E070
70E0
3FC0
1F80
0600
0600
3FC0
3FC0
0600
0600
ENDCHAR
STARTCHAR male
ENCODING 9794
SWIDTH 602 0
DWIDTH 14 0
BBX 14 17 0 0
BITMAP
0038
01F8
01B8
0068
006C
0FC0
3FC0
70E0
6060
C030
C030
C030
C030
6060
70E0
3FC0
1F00
ENDCHAR
STARTCHAR spade
ENCODING 9824
SWIDTH 602 0
DWIDTH 14 0
BBX 14 17 0 0
BITMAP
0100
0300
0380
07C0
0FE0
1FF0
3FF0
7FF8
FFFC
FFFC
FFFC
FFFC
7A70
0200
0700
0700
0700
ENDCHAR
STARTCHAR club
ENCODING 9827
SWIDTH 602 0
DWIDTH 14 0
BBX 14 17 0 0
BITMAP
0780
0FC0
0FC0
0FC0
0FC0
0780
7FF8
FFFC
FFFC
FFFC
FFFC
7A70
0200
0200
0700
0700
0700
ENDCHAR
STARTCHAR heart
ENCODING 9829
SWIDTH 602 0
DWIDTH 14 0
BBX 14 17 0 0
BITMAP
3870
7CF8
FFFC
FFFC
FFFC
FFFC
FFFC
FFFC
7FF8
7FF8
3FF0
3FF0
1FE0
1FC0
0FC0
0780
0300
ENDCHAR
STARTCHAR diamond
ENCODING 9830
SWIDTH 602 0
DWIDTH 14 0
BBX 14 17 0 0
BITMAP
0100
0300
0380
07C0
0FC0
1FE0
3FF0
7FF8
FFFC
7FF8
3FF0
1FE0
0FC0
07C0
0380
0300
0100
ENDCHAR
STARTCHAR musicalnote
ENCODING 9834
SWIDTH 602 0
DWIDTH 14 0
BBX 12 17 1 0
BITMAP
0400
0400
0600
0700
05C0
04E0
0430
0410
0410
0430
0400
0400
0400
7C00
FC00
F800
F000
ENDCHAR
STARTCHAR musicalnotedbl
ENCODING 9835
SWIDTH 602 0
DWIDTH 14 0
BBX 13 20 0 -3
BITMAP
0008
0038
00F8
03E8
0788
0608
0408
0408
0408
0408
0408
0408
04F8
05F8
05F0
05E0
7C00
FC00
F800
F000
ENDCHAR
STARTCHAR uniFB01
ENCODING 64257
SWIDTH 602 0
DWIDTH 14 0
BBX 11 19 1 0
BITMAP
0F00
1F00
3860
3060
3000
3000
FFE0
FFE0
3060
3060
3060
3060
3060
3060
3060
3060
3060
3060
3060
ENDCHAR
STARTCHAR uniFB02
ENCODING 64258
SWIDTH 602 0
DWIDTH 14 0
BBX 11 19 1 0
BITMAP
0FE0
1FE0
3060
3060
3060
3060
FE60
FE60
3060
3060
3060
3060
3060
3060
3060
3060
3060
3060
3060
ENDCHAR
STARTCHAR .notdef
ENCODING -1
SWIDTH 602 0
DWIDTH 14 0
BBX 8 15 3 0
BITMAP
FF
81
81
81
81
81
81
81
81
81
81
81
81
81
FF
ENDCHAR
STARTCHAR glyph1
ENCODING -1
SWIDTH 602 0
DWIDTH 14 0
BBX 1 1 0 0
BITMAP
00
ENDCHAR
STARTCHAR glyph2
ENCODING -1
SWIDTH 602 0
DWIDTH 14 0
BBX 1 1 0 0
BITMAP
00
ENDCHAR
STARTCHAR glyph642
ENCODING -1
SWIDTH 602 0
DWIDTH 14 0
BBX 8 4 3 15
BITMAP
3C
3C
66
C3
ENDCHAR
STARTCHAR glyph643
ENCODING -1
SWIDTH 602 0
DWIDTH 14 0
BBX 8 3 3 15
BITMAP
71
FF
8E
ENDCHAR
STARTCHAR glyph644
ENCODING -1
SWIDTH 602 0
DWIDTH 14 0
BBX 7 2 3 15
BITMAP
C6
C6
ENDCHAR
STARTCHAR glyph645
ENCODING -1
SWIDTH 602 0
DWIDTH 14 0
BBX 8 4 3 15
BITMAP
C3
C3
7E
3C
ENDCHAR
STARTCHAR glyph646
ENCODING -1
SWIDTH 602 0
DWIDTH 14 0
BBX 4 4 5 15
BITMAP
60
90
90
60
ENDCHAR
STARTCHAR glyph647
ENCODING -1
SWIDTH 602 0
DWIDTH 14 0
BBX 2 5 6 -5
BITMAP
C0
C0
40
40
80
ENDCHAR
STARTCHAR glyph648
ENCODING -1
SWIDTH 602 0
DWIDTH 14 0
BBX 9 4 4 15
BITMAP
3B80
3300
6600
CC00
ENDCHAR
STARTCHAR glyph649
ENCODING -1
SWIDTH 602 0
DWIDTH 14 0
BBX 8 4 3 15
BITMAP
C3
66
3C
3C
ENDCHAR
STARTCHAR glyph650
ENCODING -1
SWIDTH 602 0
DWIDTH 14 0
BBX 5 4 4 15
BITMAP
18
30
60
C0
ENDCHAR
STARTCHAR glyph651
ENCODING -1
SWIDTH 602 0
DWIDTH 14 0
BBX 6 4 4 15
BITMAP
E0
30
18
0C
ENDCHAR
STARTCHAR glyph652
ENCODING -1
SWIDTH 602 0
DWIDTH 14 0
BBX 2 4 6 -5
BITMAP
C0
C0
40
80
ENDCHAR
STARTCHAR glyph653
ENCODING -1
SWIDTH 602 0
DWIDTH 14 0
BBX 12 20 2 -5
BITMAP
C0E0
C1C0
C380
C700
CE00
CC00
D800
F800
DC00
CE00
C700
C380
C1C0
C0E0
C070
0C00
0C00
0400
0400
0800
ENDCHAR
STARTCHAR glyph654
ENCODING -1
SWIDTH 602 0
DWIDTH 14 0
BBX 11 24 2 -5
BITMAP
C000
C000
C000
C000
C000
C000
C1C0
C380
C700
CE00
DC00
D800
F800
DC00
CE00
C700
C380
C1C0
C0E0
0C00
0C00
0400
0400
0C00
ENDCHAR
STARTCHAR glyph655
ENCODING -1
SWIDTH 602 0
DWIDTH 14 0
BBX 10 20 2 -5
BITMAP
C000
C000
C000
C000
C000
C000
C000
C000
C000
C000
C000
C000
C000
FFC0
FFC0
0000
0600
0600
0200
0400
ENDCHAR
STARTCHAR glyph656
ENCODING -1
SWIDTH 602 0
DWIDTH 14 0
BBX 7 24 2 -5
BITMAP
FE
FE
06
06
06
06
06
06
06
06
06
06
06
06
06
06
06
06
06
00
06
06
02
04
ENDCHAR
STARTCHAR glyph657
ENCODING -1
SWIDTH 602 0
DWIDTH 14 0
BBX 11 20 2 -5
BITMAP
E060
E060
F060
F060
D860
DC60
CC60
CE60
C660
C360
C360
C1E0
C1E0
C0E0
C0E0
0C00
0C00
0400
0C00
0800
ENDCHAR
STARTCHAR glyph658
ENCODING -1
SWIDTH 602 0
DWIDTH 14 0
BBX 10 18 2 -5
BITMAP
CF00
DF80
F1C0
E0C0
C0C0
C0C0
C0C0
C0C0
C0C0
C0C0
C0C0
C0C0
C0C0
0C00
0C00
0400
0400
0800
ENDCHAR
STARTCHAR glyph659
ENCODING -1
SWIDTH 602 0
DWIDTH 14 0
BBX 11 20 2 -5
BITMAP
FF00
FF80
C1C0
C0C0
C0C0
C0C0
C380
FF00
FC00
C600
C700
C380
C1C0
C0C0
C060
0C00
0C00
0400
0400
0800
ENDCHAR
STARTCHAR glyph660
ENCODING -1
SWIDTH 602 0
DWIDTH 14 0
BBX 9 18 3 -5
BITMAP
CF80
DF80
F180
E180
C000
C000
C000
C000
C000
C000
C000
C000
C000
0600
0600
0200
0600
0400
ENDCHAR
STARTCHAR glyph666
ENCODING -1
SWIDTH 602 0
DWIDTH 14 0
BBX 13 19 2 0
BITMAP
0E38
0E70
0EE0
00C0
0000
0000
FE00
FE00
0600
0600
0600
0600
0600
0600
0600
0600
0600
0600
0600
ENDCHAR
ENDFONT
